<?xml version="1.0" encoding="utf-8"?>
<!-- Generator: Adobe Illustrator 26.5.0, SVG Export Plug-In . SVG Version: 6.00 Build 0)  -->
<svg version="1.1" id="Layer_1" xmlns="http://www.w3.org/2000/svg" xmlns:xlink="http://www.w3.org/1999/xlink" x="0px" y="0px"
	 viewBox="0 0 500 400" style="enable-background:new 0 0 500 400;" xml:space="preserve">
<style type="text/css">
	.st0{fill:#FFC75A;stroke:#333333;stroke-width:0.2675;stroke-miterlimit:10;}
	.st1{fill:#F4AA40;stroke:#333333;stroke-width:0.2675;stroke-miterlimit:10;}
	.st2{fill:#3F3334;stroke:#333333;stroke-width:0.2675;stroke-miterlimit:10;}
	.st3{fill:#FFFFFF;stroke:#333333;stroke-width:0.2675;stroke-miterlimit:10;}
	.st4{fill:#EDEDED;stroke:#333333;stroke-width:0.2675;stroke-miterlimit:10;}
	.st5{fill:#EDEDED;stroke:#DCDCDC;stroke-width:1.3374;stroke-miterlimit:10;}
	.st6{fill:#EEFDFF;stroke:#333333;stroke-width:0.2675;stroke-miterlimit:10;}
	.st7{fill:#DCDCDC;stroke:#EDEDED;stroke-width:1.3374;stroke-miterlimit:10;}
	.st8{fill:#FF8C5F;stroke:#333333;stroke-width:0.2675;stroke-miterlimit:10;}
	.st9{fill:#FF573D;stroke:#333333;stroke-width:0.2675;stroke-miterlimit:10;}
	.st10{fill:#FE9F73;stroke:#333333;stroke-width:0.2675;stroke-miterlimit:10;}
	.st11{fill:#FC795E;stroke:#333333;stroke-width:0.2675;stroke-miterlimit:10;}
	.st12{fill:#FDC9BC;stroke:#333333;stroke-width:0.2675;stroke-miterlimit:10;}
	.st13{fill:#F43E31;stroke:#333333;stroke-width:0.2675;stroke-miterlimit:10;}
	.st14{fill:#F07162;stroke:#333333;stroke-width:0.2675;stroke-miterlimit:10;}
	.st15{opacity:0.3;fill:#FFC75A;}
	.st16{fill:none;stroke:#DCDCDC;stroke-width:1.3374;stroke-miterlimit:10;}
	.st17{fill:none;stroke:#DCDCDC;stroke-width:1.3374;stroke-miterlimit:10;stroke-dasharray:7.0965,7.0965;}
</style>
<g id="hand1">
	<g id="tag">
		<path class="st0" d="M42.3,206.4c-3.7-2.4-24.9-16.2-34.1-16.7c0,0,9,39.7,19.1,42.7c7.9,2.4,18.6-1.8,22.8-3.7
			c-1.6-3.8-4-9.4-6.4-15.3C42.9,211.3,42.5,208.9,42.3,206.4z"/>
		<path class="st1" d="M60,215.9c0,0,4.1-2.6-15.2-29.6c0,0-3.2,10.7-2.6,20.1c0.2,2.5,0.6,4.9,1.4,7c2.3,5.8,4.7,11.5,6.4,15.3
			c1.2,2.7,1.9,4.4,1.9,4.4l11-10.5L60,215.9z"/>
	</g>
	<polygon class="st2" points="112.6,354.3 76.5,359.8 78.9,397.8 120.6,397.8 	"/>
	<polygon class="st3" points="77,353.8 109.1,347.8 111.1,355 77.7,359.8 	"/>
	<path class="st2" d="M87.4,288.6c0.2-2.3,4-4.9,6.4-4.5c2.3,0.3,4.4,3.7,4.2,4.9c-0.1,0.6,0.8,6.2,1.7,11.6l45.6-19.3l-33.6-80.8
		l-54.9,22.8l31.1,74.2C87.5,293.2,87.3,289.5,87.4,288.6z"/>
	<path class="st2" d="M88.1,302.2l-6.1,2.5L69.1,310l-31.6,13L4.9,244.7l-2.7,1.5l33.6,81.3l34-14.3l13.6-5.8l5-2.1
		C88.3,304.3,88.2,303.2,88.1,302.2z"/>
	<path class="st4" d="M87.8,297.4l-31.1-74.2l-0.3-0.7c0,0-1.5-1.6-3.3-0.9c-1.8,0.8-49.5,20.2-49.5,20.2l1.2,2.8l32.7,78.3l31.6-13
		l12.9-5.3l6.1-2.5C88,300.6,87.9,299,87.8,297.4z"/>
	<g id="_x31_">
		<line class="st5" x1="11.6" y1="246.4" x2="54.2" y2="228.7"/>
		<line class="st5" x1="14" y1="252.2" x2="56.7" y2="234.6"/>
		<line class="st5" x1="16.4" y1="258.1" x2="59.1" y2="240.4"/>
		<line class="st5" x1="18.9" y1="264" x2="61.5" y2="246.3"/>
		<line class="st5" x1="21.3" y1="269.9" x2="64" y2="252.2"/>
		<line class="st5" x1="23.7" y1="275.7" x2="66.4" y2="258.1"/>
		<line class="st5" x1="26.2" y1="281.6" x2="68.8" y2="263.9"/>
		<line class="st5" x1="28.6" y1="287.5" x2="71.3" y2="269.8"/>
		<line class="st5" x1="31" y1="293.4" x2="73.7" y2="275.7"/>
		<line class="st5" x1="33.5" y1="299.2" x2="76.1" y2="281.6"/>
		<line class="st5" x1="38.1" y1="310.1" x2="80.7" y2="292.4"/>
		<line class="st5" x1="40.6" y1="315.9" x2="83.3" y2="298.2"/>
		<line class="st5" x1="35.7" y1="304.8" x2="78.4" y2="287.1"/>
	</g>
	<polygon class="st6" points="140.7,279.3 107.4,198.9 98.6,202.2 98.6,202.3 124.9,265.5 96.2,294.9 96.1,298.3 	"/>
	<g id="_x33_">
		<line class="st7" x1="62" y1="223.4" x2="104.7" y2="205.7"/>
		<line class="st7" x1="64.4" y1="229.3" x2="107.1" y2="211.6"/>
		<line class="st7" x1="66.9" y1="235.2" x2="109.5" y2="217.5"/>
		<line class="st7" x1="69.3" y1="241" x2="112" y2="223.4"/>
		<line class="st7" x1="71.7" y1="246.9" x2="114.4" y2="229.2"/>
		<line class="st7" x1="74.2" y1="252.8" x2="116.8" y2="235.1"/>
		<line class="st7" x1="76.6" y1="258.7" x2="119.3" y2="241"/>
		<line class="st7" x1="79" y1="264.5" x2="121.7" y2="246.9"/>
		<line class="st7" x1="81.5" y1="270.4" x2="124.1" y2="252.7"/>
		<line class="st7" x1="83.9" y1="276.3" x2="126.6" y2="258.6"/>
		<line class="st7" x1="88.5" y1="287.2" x2="131.2" y2="269.5"/>
		<line class="st7" x1="91" y1="292.9" x2="133.7" y2="275.3"/>
		<line class="st7" x1="86.2" y1="281.8" x2="128.8" y2="264.1"/>
	</g>
	<path class="st3" d="M98.6,202.3l-7.3-17.4c0,0-31.9,32-33.6,33.8c-1.8,1.8-0.5,4.9-0.5,4.9l32.4,78.1l6.6-6.8l28.8-29.4
		L98.6,202.3z"/>
	<g id="_x32_">
		<line class="st7" x1="62.8" y1="224.9" x2="91.2" y2="195.4"/>
		<line class="st7" x1="65.2" y1="230.9" x2="93.7" y2="201.6"/>
		<line class="st7" x1="67.7" y1="236.9" x2="96.3" y2="207.7"/>
		<line class="st7" x1="70.2" y1="242.9" x2="98.8" y2="213.8"/>
		<line class="st7" x1="72.7" y1="248.9" x2="101.3" y2="219.9"/>
		<line class="st7" x1="75.2" y1="254.9" x2="103.9" y2="226"/>
		<line class="st7" x1="77.7" y1="260.9" x2="106.4" y2="232.2"/>
		<line class="st7" x1="80.2" y1="266.9" x2="108.9" y2="238.3"/>
		<line class="st7" x1="82.6" y1="272.9" x2="111.5" y2="244.4"/>
		<line class="st7" x1="85.1" y1="278.9" x2="114" y2="250.5"/>
		<line class="st7" x1="89.8" y1="290" x2="118.8" y2="261.8"/>
		<line class="st7" x1="87.4" y1="284.6" x2="116.4" y2="256.3"/>
	</g>
	<path class="st8" d="M114.2,301.4c0.3-2.8-4.8-4.9-4.8-4.9l-9.8,4c0.2,1.3,0.5,2.6,0.7,3.8l0,0c0,0,0,0,0,0c0,0,0,0,0,0.1
		c0.3,0.1,1.2,0.4,3.7,1.2C108.8,307,114,304.3,114.2,301.4z"/>
	<path class="st9" d="M89.4,312.5c-0.2-0.4-0.6-3.5-1-7.2l-5,2.1C84.6,313.2,90,313.6,89.4,312.5z"/>
	<path class="st9" d="M107.4,305.4c-0.4-1.2-4.1-1.6-7.2-1.7c0,0.2,0.1,0.5,0.1,0.7l0,0c0,0,0,0,0,0c0,0,0,0,0,0.1
		c0.6,3.3,1.2,6,1.6,6.7c0.6,1.2,2.1,3.5,3.4,7l0,0c0,0,4.4-0.4,4.6-2.3C110.1,314,108.1,307.4,107.4,305.4z"/>
	<path class="st10" d="M107.4,326.4c-0.5-3.3-1.2-6-2.1-8.2c-1.3-3.5-2.8-5.8-3.4-7c-0.3-0.7-0.9-3.4-1.6-6.7c0,0,0,0,0-0.1
		c0,0,0,0,0,0l0,0c0-0.2-0.1-0.5-0.1-0.7c-0.2-1-0.4-2-0.6-3.1c-1-5.4-1.8-11-1.7-11.6c0.2-1.2-1.8-4.5-4.2-4.9
		c-2.3-0.3-6.2,2.2-6.4,4.5c-0.1,0.9,0.1,4.6,0.4,8.9c0.1,1.5,0.2,3.2,0.4,4.7c0.1,1.1,0.2,2.1,0.3,3.1c0.3,3.8,0.7,6.8,1,7.2
		c0.6,1.1-4.8,0.7-5.9-5.1l-13.6,5.8c0.4,2.2,6.7,32.9,8.2,34.3l0.5,6.2l29.1-5.5l-1.3-6C106.3,342.1,108.6,334.7,107.4,326.4z"/>
	<g>
		<path id="nail" class="st11" d="M91.2,295l4.4-0.3c0.7-0.1,1.3-0.7,1.2-1.4l-0.4-4.8c-0.1-0.7-0.7-1.3-1.4-1.2l-4.4,0.3
			c-0.7,0.1-1.3,0.7-1.2,1.4l0.4,4.8C89.8,294.5,90.5,295,91.2,295z"/>
		<path class="st12" d="M89.4,288.9c-0.1-0.7,0.5-1.4,1.2-1.4l4.4-0.3c0.7-0.1,1.4,0.5,1.4,1.2l-0.1-0.8c-0.1-0.7-0.7-1.3-1.4-1.2
			l-4.4,0.3c-0.7,0.1-1.3,0.7-1.2,1.4"/>
	</g>
</g>
<g id="hand2">
	<g id="book">
		<polygon class="st13" points="232.6,149 232.6,253.7 162,253.7 162,148.7 157.6,148.6 157.6,257.8 305.3,257.8 305.3,149.3 		"/>
		<polygon class="st3" points="200.7,146.9 227.6,251.4 175.1,230.3 175.1,145.3 162,145 162,148.7 162,253.7 232.6,253.7 
			232.6,149 232.6,149 		"/>
		<g id="_x34_">
			<line class="st5" x1="225.3" y1="153" x2="165.7" y2="153.5"/>
			<line class="st5" x1="225.3" y1="160.8" x2="165.8" y2="161.3"/>
			<line class="st5" x1="225.4" y1="168.6" x2="165.9" y2="169.1"/>
			<line class="st5" x1="225.5" y1="176.3" x2="165.9" y2="176.9"/>
			<line class="st5" x1="225.5" y1="184.1" x2="166" y2="184.6"/>
			<line class="st5" x1="225.6" y1="191.9" x2="166.1" y2="192.4"/>
			<line class="st5" x1="225.7" y1="199.7" x2="166.1" y2="200.2"/>
			<line class="st5" x1="225.7" y1="207.4" x2="166.2" y2="208"/>
			<line class="st5" x1="225.8" y1="215.2" x2="166.3" y2="215.7"/>
			<line class="st5" x1="225.9" y1="223" x2="166.3" y2="223.5"/>
			<line class="st5" x1="225.9" y1="237.4" x2="166.3" y2="238"/>
			<line class="st5" x1="225.8" y1="245.1" x2="166.3" y2="245.7"/>
			<line class="st5" x1="225.9" y1="230.3" x2="166.4" y2="230.8"/>
		</g>
		<polygon class="st4" points="196.2,130.5 175.1,122.2 175.1,145.3 175.1,230.3 227.6,251.4 227,249.1 196,230.4 		"/>
		<g id="_x35_">
			<line class="st5" x1="239" y1="156.3" x2="179.3" y2="133.6"/>
			<line class="st5" x1="238.9" y1="164.5" x2="179.3" y2="141.6"/>
			<line class="st5" x1="238.8" y1="172.7" x2="179.4" y2="149.6"/>
			<line class="st5" x1="238.7" y1="180.8" x2="179.5" y2="157.5"/>
			<line class="st5" x1="238.6" y1="188.9" x2="179.6" y2="165.4"/>
			<line class="st5" x1="238.5" y1="196.9" x2="179.6" y2="173.2"/>
			<line class="st5" x1="238.3" y1="204.9" x2="179.7" y2="181"/>
			<line class="st5" x1="238.2" y1="212.9" x2="179.8" y2="188.8"/>
			<line class="st5" x1="238.1" y1="220.8" x2="179.8" y2="196.5"/>
			<line class="st5" x1="238" y1="228.6" x2="179.9" y2="204.1"/>
			<line class="st5" x1="237.7" y1="243" x2="179.9" y2="218.2"/>
			<line class="st5" x1="237.5" y1="250.6" x2="179.8" y2="225.6"/>
			<line class="st5" x1="237.9" y1="235.9" x2="180" y2="211.3"/>
		</g>
		<path class="st3" d="M231.8,149.2c-0.1-2.8-0.2-3.2-2.2-5.5c-2-2.3-33.4-21.3-33.4-21.3l0,8.1l-0.2,100l31,18.7l4.6,2.8
			C231.6,251.9,231.9,152,231.8,149.2z"/>
		<g id="_x36_">
			<line class="st5" x1="229.7" y1="151.2" x2="199.7" y2="134.5"/>
			<line class="st5" x1="229.6" y1="159.1" x2="199.8" y2="142.9"/>
			<line class="st5" x1="229.4" y1="166.9" x2="199.9" y2="151.2"/>
			<line class="st5" x1="229.3" y1="174.6" x2="200" y2="159.3"/>
			<line class="st5" x1="229.2" y1="182.2" x2="200" y2="167.3"/>
			<line class="st5" x1="229" y1="189.8" x2="200.1" y2="175.2"/>
			<line class="st5" x1="228.9" y1="197.2" x2="200.2" y2="183"/>
			<line class="st5" x1="228.8" y1="204.5" x2="200.2" y2="190.7"/>
			<line class="st5" x1="228.7" y1="211.7" x2="200.3" y2="198.3"/>
			<line class="st5" x1="228.5" y1="218.8" x2="200.4" y2="205.8"/>
			<line class="st5" x1="228.3" y1="231.8" x2="200.4" y2="219.5"/>
			<line class="st5" x1="228.1" y1="238.6" x2="200.4" y2="226.6"/>
			<line class="st5" x1="228.4" y1="225.4" x2="200.4" y2="212.8"/>
		</g>
		<polygon class="st4" points="301.4,145.1 301.4,253.4 232.6,253.4 231.5,144.8 		"/>
		<g id="_x37_">
			<line class="st5" x1="296.5" y1="153" x2="237" y2="153.5"/>
			<line class="st5" x1="296.6" y1="160.8" x2="237.1" y2="161.3"/>
			<line class="st5" x1="296.7" y1="168.6" x2="237.2" y2="169.1"/>
			<line class="st5" x1="296.7" y1="176.3" x2="237.2" y2="176.9"/>
			<line class="st5" x1="296.8" y1="184.1" x2="237.3" y2="184.6"/>
			<line class="st5" x1="296.9" y1="191.9" x2="237.4" y2="192.4"/>
			<line class="st5" x1="297" y1="199.7" x2="237.4" y2="200.2"/>
			<line class="st5" x1="297" y1="207.4" x2="237.5" y2="208"/>
			<line class="st5" x1="297.1" y1="215.2" x2="237.6" y2="215.7"/>
			<line class="st5" x1="297.2" y1="223" x2="237.6" y2="223.5"/>
			<line class="st5" x1="297.2" y1="237.4" x2="237.6" y2="238"/>
			<line class="st5" x1="297.1" y1="245.1" x2="237.6" y2="245.7"/>
			<line class="st5" x1="297.2" y1="230.3" x2="237.7" y2="230.8"/>
		</g>
		<polygon class="st1" points="231.5,142.8 240.3,142.8 240.3,220.4 236,213.1 232,220.4 		"/>
	</g>
	<g id="hand">
		<path class="st8" d="M209.7,257.7h12.9c0,0-3,2.4-7,2.5C211.5,260.3,209.7,257.7,209.7,257.7z"/>
		<polygon class="st14" points="234.7,257.8 241.4,257.8 235.8,266.7 234.1,262.7 		"/>
		<path class="st14" d="M216.2,260c0,0-2.1,9.6-1,10.5c1,0.8,3.3,2.5,6.6,1c3.3-1.5,1.7-14.2,1.7-14.2L216.2,260z"/>
		<path class="st10" d="M218.1,398.5h36.1l-3.5-101.2c0,0,3.8-32.4,3.8-39.7l-14.6,0.1c0,0,0.5,5-4.9,6.5c0,0-0.2-22.1-1.7-25.4
			c-1.5-3.3-9.4-4.4-9.9,2.8c-0.5,7.2,0.2,17.6-0.8,21.9c-1,4.4-8.7,18.9-1.2,31.5L218.1,398.5z"/>
		<g>
			<path id="nail_00000173881249987602300450000006496437250921662857_" class="st11" d="M227,246.9l4.4-0.3
				c0.7-0.1,1.3-0.7,1.2-1.4l-0.4-4.8c-0.1-0.7-0.7-1.3-1.4-1.2l-4.4,0.3c-0.7,0.1-1.3,0.7-1.2,1.4l0.4,4.8
				C225.6,246.5,226.2,247,227,246.9z"/>
			<path class="st12" d="M225.2,240.9c-0.1-0.7,0.5-1.4,1.2-1.4l4.4-0.3c0.7-0.1,1.4,0.5,1.4,1.2l-0.1-0.8c-0.1-0.7-0.7-1.3-1.4-1.2
				l-4.4,0.3c-0.7,0.1-1.3,0.7-1.2,1.4"/>
		</g>
	</g>
	<g id="magnifier">
		<path class="st0" d="M262.9,241.2l12.6-5.6l36,65c0,0,1,2.8-0.9,3.9c-1.9,1.1-14.6,7.2-15.7,7.7c-1.1,0.5-3.8,1-5.1-1.6
			S262.9,241.2,262.9,241.2z"/>
		<path class="st0" d="M258.7,238.2l17.6-8.1c0,0,2.9,4.1,0.9,5.5s-14.5,7.1-14.5,7.1s-1.1,0.7-2.2-0.4
			C259.5,241.2,258.7,238.2,258.7,238.2z"/>
		<path class="st9" d="M250.9,157c-22.8,0-41.3,18.5-41.3,41.3c0,22.8,18.5,41.3,41.3,41.3s41.3-18.5,41.3-41.3
			C292.2,175.5,273.7,157,250.9,157z M250.9,232.6c-18.9,0-34.2-15.3-34.2-34.2s15.3-34.2,34.2-34.2c18.9,0,34.2,15.3,34.2,34.2
			S269.7,232.6,250.9,232.6z"/>
		<path class="st15" d="M250.9,164.1c-18.9,0-34.2,15.3-34.2,34.2s15.3,34.2,34.2,34.2c18.9,0,34.2-15.3,34.2-34.2
			S269.7,164.1,250.9,164.1z"/>
	</g>
</g>
<g id="hand3">
	<g id="tag_00000148632015902313965090000009612166162306500796_">
		<path class="st0" d="M457.4,315.7c4.3,0.7,29.4,4.5,37.9,1.1c0,0-24.6-32.4-35-31c-8.2,1.1-16.2,9.3-19.2,12.8
			c3,2.8,7.6,6.9,12.1,11.3C454.9,311.5,456.2,313.5,457.4,315.7z"/>
		<path class="st1" d="M437.3,314.4c0,0-2.7,4.1,26.1,20.7c0,0-1.5-11-6-19.4c-1.2-2.2-2.6-4.2-4.2-5.8c-4.5-4.3-9.1-8.5-12.1-11.3
			c-2.2-2-3.6-3.2-3.6-3.2l-5.7,14.2L437.3,314.4z"/>
	</g>
	<path class="st2" d="M417.9,216.3c0,0,2.3-3.8,7-5.9c4.7-2,15.4-3.8,19.9-5.5c4.5-1.7,8-5.5,8.9-8.2c0,0,1,7.7-0.5,9.2
		c0,0,1.8,1.8,7,0.3c0,0-4.9,6.2-8.7,8.4c-3.8,2.2-5.9,2.8-11.7,3c-5.9,0.2-11,5.7-11,5.7l-3.8,1.7l-9.4-1.7L417.9,216.3z"/>
	<path class="st14" d="M370.7,305.9c0,0-2.5,8.3-2.4,9c0.1,0.8-2.5,3.1,7,4s20.8-8.8,20.8-8.8l-1.4-5.8l-20.5-3.5L370.7,305.9z"/>
	<path class="st8" d="M368.7,296.6c0,0-5.3,2.6-4.6,5c0.6,2.4,3.3,4.1,8.5,4.3c5.3,0.1,10-4.9,10-4.9l-10.9-4.8L368.7,296.6z"/>
	<g id="book3">
		<polygon class="st2" points="366.4,200.4 475.9,246.1 442.2,327.5 332.5,281.5 		"/>
		<path class="st4" d="M474.4,242.2l-33.8,81l-51.7-21.9l32.8-78.7c0,0,1.5-1.7,3.5-0.8C427.3,222.6,474.4,242.2,474.4,242.2z"/>
		<g id="_x31_0">
			<line class="st5" x1="466.8" y1="246.9" x2="424.2" y2="229.2"/>
			<line class="st5" x1="464.4" y1="252.7" x2="421.7" y2="235.1"/>
			<line class="st5" x1="462" y1="258.6" x2="419.3" y2="240.9"/>
			<line class="st5" x1="459.5" y1="264.5" x2="416.9" y2="246.8"/>
			<line class="st5" x1="457.1" y1="270.4" x2="414.4" y2="252.7"/>
			<line class="st5" x1="454.7" y1="276.2" x2="412" y2="258.6"/>
			<line class="st5" x1="452.2" y1="282.1" x2="409.6" y2="264.4"/>
			<line class="st5" x1="449.8" y1="288" x2="407.1" y2="270.3"/>
			<line class="st5" x1="447.4" y1="293.9" x2="404.7" y2="276.2"/>
			<line class="st5" x1="444.9" y1="299.7" x2="402.3" y2="282.1"/>
			<line class="st5" x1="440.3" y1="310.6" x2="397.6" y2="292.9"/>
			<line class="st5" x1="437.8" y1="316.4" x2="395.1" y2="298.7"/>
			<line class="st5" x1="442.7" y1="305.3" x2="400" y2="287.6"/>
		</g>
		<polygon class="st6" points="379.3,202.5 370.4,199 337.2,279.7 379.9,297.8 380.1,292.6 380.1,292.5 353.1,265.8 		"/>
		<g id="_x38_">
			<line class="st5" x1="413.6" y1="224.8" x2="370.9" y2="207.1"/>
			<line class="st5" x1="411.2" y1="230.6" x2="368.5" y2="213"/>
			<line class="st5" x1="408.7" y1="236.5" x2="366.1" y2="218.8"/>
			<line class="st5" x1="406.3" y1="242.4" x2="363.6" y2="224.7"/>
			<line class="st5" x1="403.9" y1="248.3" x2="361.2" y2="230.6"/>
			<line class="st5" x1="401.4" y1="254.1" x2="358.8" y2="236.5"/>
			<line class="st5" x1="399" y1="260" x2="356.3" y2="242.3"/>
			<line class="st5" x1="396.6" y1="265.9" x2="353.9" y2="248.2"/>
			<line class="st5" x1="394.1" y1="271.8" x2="351.5" y2="254.1"/>
			<line class="st5" x1="391.7" y1="277.6" x2="349" y2="260"/>
			<line class="st5" x1="387.1" y1="288.5" x2="344.4" y2="270.8"/>
			<line class="st5" x1="384.6" y1="294.3" x2="341.9" y2="276.6"/>
			<line class="st5" x1="389.4" y1="283.2" x2="346.8" y2="265.5"/>
		</g>
		<path class="st3" d="M420.9,219.1c-1.5-1.7-34.3-34.3-34.3-34.3l-7.3,17.7l-26.2,63.3l26.9,26.7l8.9,8.8l32.8-78.7
			C421.7,222.6,422.4,220.8,420.9,219.1z"/>
		<g id="_x39_">
			<line class="st5" x1="415.5" y1="224.9" x2="387.1" y2="195.4"/>
			<line class="st5" x1="413" y1="230.9" x2="384.5" y2="201.6"/>
			<line class="st5" x1="410.5" y1="236.9" x2="382" y2="207.7"/>
			<line class="st5" x1="408" y1="242.9" x2="379.5" y2="213.8"/>
			<line class="st5" x1="405.5" y1="248.9" x2="376.9" y2="219.9"/>
			<line class="st5" x1="403.1" y1="254.9" x2="374.4" y2="226"/>
			<line class="st5" x1="400.6" y1="260.9" x2="371.9" y2="232.2"/>
			<line class="st5" x1="398.1" y1="266.9" x2="369.3" y2="238.3"/>
			<line class="st5" x1="395.6" y1="272.9" x2="366.8" y2="244.4"/>
			<line class="st5" x1="393.1" y1="278.9" x2="364.3" y2="250.5"/>
			<line class="st5" x1="388.4" y1="290" x2="359.5" y2="261.8"/>
			<line class="st5" x1="390.8" y1="284.6" x2="361.9" y2="256.3"/>
		</g>
	</g>
	<path class="st10" d="M370.1,350.4l30.1,0.3l-0.1-2.9c0,0,8.2-32.4,8.4-34.8l-13.9-6.5c0,0,0.1,5.3-5.6,6.2c0,0,2.5-21.7,1.9-24.4
		c-0.6-2.6-5.1-5.8-7.2-4c-2,1.8-3.1,3.8-3.4,6s-2.1,17.1-3.3,19.6s-5.4,11.2-6,14.9c-0.6,3.8-0.8,12.7,0.9,17.4L370.1,350.4z"/>
	<polygon class="st13" points="357.4,398 401.3,398 401.9,350.4 366.8,350.4 	"/>
	<g>
		<path id="nail_00000098907319740221073780000003253831052076960426_" class="st11" d="M383,294.9l4.4,0.3c0.7,0.1,1.4-0.5,1.4-1.2
			l0.4-4.8c0.1-0.7-0.5-1.4-1.2-1.4l-4.4-0.3c-0.7-0.1-1.4,0.5-1.4,1.2l-0.4,4.8C381.8,294.2,382.3,294.8,383,294.9z"/>
		<path class="st12" d="M382.2,288.6c0.1-0.7,0.7-1.3,1.4-1.2l4.4,0.3c0.7,0.1,1.3,0.7,1.2,1.4l0.1-0.8c0.1-0.7-0.5-1.4-1.2-1.4
			l-4.4-0.3c-0.7-0.1-1.4,0.5-1.4,1.2"/>
	</g>
</g>
<g id="plane">
	<g>
		<g>
			<path class="st16" d="M258.7,116.9c0,0,0.3-1.3,1.2-3.4"/>
			<path class="st17" d="M262.9,107.1c4.3-7.9,12.4-18.8,27-26.4c25.1-13.1,49.2,9,49.2,9s10,33.1-14.1,32.1s-11-26.1,6-31.1
				c15.8-4.7,28.2-9.3,53.1,4.4"/>
			<path class="st16" d="M387.2,96.9c1,0.6,2,1.2,3.1,1.8"/>
		</g>
	</g>
	<g>
		<g>
			<polygon class="st9" points="405.2,101 442.8,127.6 408.7,85.4 			"/>
			<polygon class="st9" points="403.3,109.1 399.6,125.6 442.8,127.6 			"/>
		</g>
		<polygon class="st13" points="405,100.9 395.7,110.5 403.3,109.1 403.3,109.1 405.2,101 		"/>
		<polygon class="st13" points="405.2,101 403.3,109.1 442.8,127.6 		"/>
	</g>
</g>
</svg>
