<?xml version="1.0" encoding="utf-8"?>
<!-- Generator: Adobe Illustrator 26.5.0, SVG Export Plug-In . SVG Version: 6.00 Build 0)  -->
<svg version="1.1" id="Layer_1" xmlns="http://www.w3.org/2000/svg" xmlns:xlink="http://www.w3.org/1999/xlink" x="0px" y="0px"
	 viewBox="0 0 149 48" style="enable-background:new 0 0 149 48;" xml:space="preserve">
<style type="text/css">
	.st0{fill:#131313;}
	.st1{fill:#FFFDFB;}
	.st2{fill:none;stroke:#FFC149;stroke-width:7;stroke-linecap:round;}
</style>
<path class="st0" d="M19.1,34.3c0.9,0,1.7-0.1,2.4-0.4c0.8-0.3,1.4-0.7,1.9-1.3c0.5-0.6,1-1.4,1.2-2.3c0.3-0.9,0.5-2.1,0.5-3.4
	s-0.2-2.5-0.5-3.4c-0.3-0.9-0.7-1.7-1.2-2.3c-0.5-0.6-1.2-1-1.9-1.3c-0.7-0.3-1.5-0.4-2.4-0.4h-4.9v14.8H19.1z M8.7,37V9.7h5.5v7
	h4.9c1.8,0,3.4,0.2,4.9,0.7c1.5,0.5,2.7,1.1,3.8,2c1,0.9,1.8,1.9,2.4,3.2c0.6,1.2,0.9,2.7,0.9,4.2c0,1.6-0.3,3-0.9,4.2
	c-0.5,1.2-1.3,2.3-2.4,3.2c-1,0.9-2.3,1.6-3.8,2c-1.5,0.5-3.1,0.7-4.9,0.7H8.7z M44.2,35.2c0.8,0,1.6-0.2,2.3-0.5
	c0.7-0.3,1.4-0.8,1.9-1.4c0.5-0.7,1-1.5,1.3-2.6c0.3-1.1,0.5-2.4,0.5-3.9c0-1.5-0.2-2.8-0.5-3.9c-0.3-1.1-0.7-1.9-1.3-2.6
	c-0.5-0.7-1.2-1.2-1.9-1.5c-0.7-0.3-1.5-0.5-2.3-0.5c-0.8,0-1.6,0.2-2.3,0.5c-0.7,0.3-1.4,0.8-1.9,1.5c-0.5,0.7-1,1.5-1.3,2.6
	c-0.3,1.1-0.5,2.4-0.5,3.9c0,1.5,0.2,2.8,0.5,3.9c0.3,1.1,0.8,1.9,1.3,2.6c0.5,0.7,1.2,1.1,1.9,1.4S43.4,35.2,44.2,35.2z M44.2,15.9
	c1.7,0,3.3,0.2,4.8,0.7c1.5,0.5,2.7,1.2,3.8,2.1c1,0.9,1.8,2.1,2.4,3.4c0.6,1.4,0.9,2.9,0.9,4.6c0,1.8-0.3,3.3-0.9,4.7
	c-0.6,1.4-1.4,2.5-2.4,3.4c-1,0.9-2.3,1.6-3.8,2.1c-1.5,0.5-3.1,0.7-4.8,0.7c-1.8,0-3.4-0.2-4.8-0.7c-1.5-0.5-2.7-1.2-3.7-2.1
	c-1-0.9-1.9-2.1-2.5-3.4c-0.6-1.4-0.9-2.9-0.9-4.7c0-1.7,0.3-3.3,0.9-4.6c0.6-1.4,1.4-2.5,2.5-3.4c1-0.9,2.3-1.6,3.7-2.1
	C40.8,16.2,42.4,15.9,44.2,15.9z M73.3,35.2c0.8,0,1.6-0.2,2.3-0.5c0.7-0.3,1.4-0.8,1.9-1.4c0.5-0.7,1-1.5,1.3-2.6
	c0.3-1.1,0.5-2.4,0.5-3.9c0-1.5-0.2-2.8-0.5-3.9c-0.3-1.1-0.7-1.9-1.3-2.6c-0.5-0.7-1.2-1.2-1.9-1.5c-0.7-0.3-1.5-0.5-2.3-0.5
	s-1.6,0.2-2.3,0.5c-0.7,0.3-1.4,0.8-1.9,1.5c-0.5,0.7-1,1.5-1.3,2.6c-0.3,1.1-0.5,2.4-0.5,3.9c0,1.5,0.2,2.8,0.5,3.9
	c0.3,1.1,0.8,1.9,1.3,2.6c0.5,0.7,1.2,1.1,1.9,1.4C71.7,35.1,72.4,35.2,73.3,35.2z M73.3,15.9c1.7,0,3.3,0.2,4.8,0.7
	c1.5,0.5,2.7,1.2,3.8,2.1c1,0.9,1.8,2.1,2.4,3.4c0.6,1.4,0.9,2.9,0.9,4.6c0,1.8-0.3,3.3-0.9,4.7c-0.6,1.4-1.4,2.5-2.4,3.4
	c-1,0.9-2.3,1.6-3.8,2.1c-1.5,0.5-3.1,0.7-4.8,0.7c-1.8,0-3.4-0.2-4.8-0.7c-1.5-0.5-2.7-1.2-3.7-2.1c-1-0.9-1.9-2.1-2.5-3.4
	c-0.6-1.4-0.9-2.9-0.9-4.7c0-1.7,0.3-3.3,0.9-4.6c0.6-1.4,1.4-2.5,2.5-3.4c1-0.9,2.3-1.6,3.7-2.1C69.9,16.2,71.5,15.9,73.3,15.9z
	 M97.1,28H93v9h-5.5V9.7H93v15.6h4.1l6-8.6h5.8l-6.8,9.8l7.2,10.5h-6.2L97.1,28z M116,37h-5.5V17.1h5.5V37z M116.2,11.8
	c0,0.8-0.3,1.5-0.8,2.1c-0.5,0.6-1.2,0.9-2.1,0.9s-1.6-0.3-2.1-0.9c-0.5-0.6-0.8-1.3-0.8-2.1c0-0.8,0.3-1.5,0.8-2
	c0.5-0.6,1.3-0.9,2.1-0.9c0.9,0,1.6,0.3,2.1,0.9C115.9,10.4,116.2,11.1,116.2,11.8z M131.2,35c1.3,0,2.5-0.2,3.5-0.7
	c1.1-0.4,2.2-1.1,3.3-1.9l1.6,2.3c-0.5,0.4-1.1,0.8-1.8,1.2c-0.6,0.4-1.4,0.7-2.1,0.9c-0.8,0.2-1.5,0.4-2.4,0.5
	c-0.8,0.2-1.7,0.2-2.5,0.2c-1.8,0-3.5-0.2-5.1-0.7c-1.5-0.5-2.8-1.2-3.9-2.1c-1.1-0.9-1.9-2.1-2.5-3.4c-0.6-1.4-0.9-2.9-0.9-4.7
	c0-1.7,0.3-3.3,0.8-4.6c0.6-1.4,1.4-2.5,2.3-3.4c1-0.9,2.2-1.6,3.6-2.1c1.4-0.5,2.9-0.7,4.6-0.7c1.6,0,3,0.2,4.4,0.7
	c1.4,0.5,2.6,1.2,3.6,2.1c1,0.9,1.8,2,2.4,3.2c0.6,1.3,0.9,2.7,0.9,4.3V29h-16.7c0.3,2.2,1.1,3.7,2.2,4.6
	C127.9,34.6,129.4,35,131.2,35z M129.8,18.5c-0.8,0-1.5,0.1-2.1,0.4c-0.7,0.3-1.2,0.7-1.7,1.4c-0.5,0.6-0.9,1.4-1.2,2.4
	c-0.3,1-0.4,2.2-0.5,3.6h10.9c0-1.4-0.2-2.5-0.5-3.5c-0.3-1-0.7-1.8-1.2-2.4c-0.5-0.6-1.1-1.1-1.8-1.4
	C131.1,18.6,130.5,18.5,129.8,18.5z"/>
<path class="st1" d="M21.5,33.9l2.4,6.6c0,0,0.1,0,0.1,0L21.5,33.9z M23.4,32.6l-5.2-4.7c0,0-0.1,0.1-0.1,0.1L23.4,32.6z M24.6,30.3
	L18,28c0,0.1,0,0.1-0.1,0.2L24.6,30.3z M24.6,23.5l-6.7,2c0,0.1,0,0.1,0.1,0.2L24.6,23.5z M23.4,21.2l-5.3,4.6c0,0,0.1,0.1,0.1,0.1
	L23.4,21.2z M21.5,19.9l-2.6,6.5c0.1,0,0.2,0.1,0.3,0.1L21.5,19.9z M14.2,19.5v-7c-3.9,0-7,3.1-7,7H14.2z M14.2,34.3h-7
	c0,3.9,3.1,7,7,7V34.3z M8.7,37h-7c0,3.9,3.1,7,7,7V37z M8.7,9.7v-7c-3.9,0-7,3.1-7,7H8.7z M14.2,9.7h7c0-3.9-3.1-7-7-7V9.7z
	 M14.2,16.7h-7c0,3.9,3.1,7,7,7V16.7z M23.9,17.4l-2.1,6.7c0,0,0,0,0,0L23.9,17.4z M27.7,19.5l4.5-5.3l0,0L27.7,19.5z M30.1,22.6
	l-6.4,2.8c0,0,0,0.1,0,0.1L30.1,22.6z M30.1,31.1l-6.4-2.9c0,0,0,0.1,0,0.1L30.1,31.1z M27.7,34.3l4.5,5.3l0,0L27.7,34.3z
	 M23.9,36.3l-2.1-6.7c0,0,0,0,0,0L23.9,36.3z M19.1,41.3c1.6,0,3.2-0.2,4.8-0.8l-4.7-13.2c0.1,0,0.1,0,0.1,0c0,0-0.1,0-0.2,0V41.3z
	 M24,40.4c1.8-0.7,3.4-1.8,4.7-3.3L18.1,28c0.1-0.1,0.3-0.3,0.4-0.4c0.2-0.1,0.3-0.2,0.5-0.2L24,40.4z M28.6,37.3
	c1.4-1.5,2.2-3.2,2.8-5l-13.4-4.1c0,0.1,0-0.1,0.3-0.4L28.6,37.3z M31.3,32.5c0.6-1.8,0.8-3.8,0.8-5.6h-14c0,0.4,0,0.7-0.1,0.9
	c0,0.1,0,0.2,0,0.2c0,0,0,0.1,0,0.1L31.3,32.5z M32.1,26.9c0-1.8-0.2-3.8-0.8-5.6L18,25.7c0,0,0,0,0,0.1c0,0,0,0.1,0,0.2
	c0,0.2,0.1,0.5,0.1,0.9H32.1z M31.3,21.4c-0.5-1.7-1.4-3.5-2.8-5l-10.3,9.4c-0.3-0.3-0.3-0.5-0.3-0.4L31.3,21.4z M28.7,16.6
	c-1.3-1.5-3-2.7-4.9-3.3l-4.6,13.2c-0.2-0.1-0.4-0.2-0.6-0.3c-0.2-0.1-0.4-0.3-0.5-0.4L28.7,16.6z M24,13.4c-1.6-0.6-3.3-0.9-5-0.9
	v14c0.1,0,0.1,0,0,0c0,0-0.1,0-0.2-0.1L24,13.4z M19.1,12.4h-4.9v14h4.9V12.4z M7.2,19.5v14.8h14V19.5H7.2z M14.2,41.3h4.9v-14h-4.9
	V41.3z M15.7,37V9.7h-14V37H15.7z M8.7,16.7h5.5v-14H8.7V16.7z M7.2,9.7v7h14v-7H7.2z M14.2,23.7h4.9v-14h-4.9V23.7z M19.1,23.7
	c1.2,0,2.1,0.2,2.7,0.4l4.3-13.3c-2.3-0.7-4.6-1-7-1V23.7z M21.8,24.1c0.7,0.2,1.1,0.5,1.4,0.7l9.1-10.7c-1.8-1.6-4-2.7-6.2-3.4
	L21.8,24.1z M23.2,24.8c0.2,0.2,0.4,0.4,0.5,0.7l12.8-5.6c-1-2.2-2.4-4.2-4.3-5.7L23.2,24.8z M23.7,25.6c0.1,0.2,0.2,0.6,0.2,1.3h14
	c0-2.4-0.4-4.8-1.5-7.1L23.7,25.6z M24,26.9c0,0.7-0.1,1.1-0.2,1.3L36.5,34c1-2.3,1.5-4.7,1.5-7.1H24z M23.7,28.3
	c-0.1,0.3-0.3,0.5-0.5,0.7l9.1,10.7c1.8-1.6,3.3-3.5,4.3-5.7L23.7,28.3z M23.2,28.9c-0.2,0.2-0.6,0.5-1.4,0.7L26,43
	c2.2-0.7,4.4-1.8,6.2-3.4L23.2,28.9z M21.8,29.6c-0.7,0.2-1.5,0.4-2.7,0.4v14c2.4,0,4.8-0.3,7-1L21.8,29.6z M19.1,30H8.7v14h10.3V30
	z M48.5,33.3l5.4,4.5c0,0,0.1-0.1,0.1-0.1L48.5,33.3z M49.7,30.7l-6.7-2.1c0,0,0,0.1,0,0.1L49.7,30.7z M49.7,23L43,25
	c0,0.1,0,0.1,0,0.1L49.7,23z M48.5,20.4L43,24.8c0,0,0.1,0.1,0.1,0.1L48.5,20.4z M40,20.4l5.4,4.5c0,0,0.1-0.1,0.1-0.1L40,20.4z
	 M38.6,23L32,20.9c0,0,0,0.1,0,0.1L38.6,23z M38.6,30.7l-6.7,2c0,0,0,0.1,0,0.1L38.6,30.7z M40,33.3l-5.4,4.4c0,0,0.1,0.1,0.1,0.1
	L40,33.3z M49,16.7l-2.2,6.6c0,0,0.1,0,0.1,0L49,16.7z M52.8,18.8L48.1,24c0,0,0,0,0.1,0.1L52.8,18.8z M55.2,22.2l-6.5,2.7
	c0,0,0,0.1,0.1,0.1L55.2,22.2z M55.2,31.5l-6.4-2.8c0,0,0,0.1,0,0.1L55.2,31.5z M52.8,35l4.6,5.3c0,0,0,0,0.1-0.1L52.8,35z M49,37
	l-2.1-6.7c0,0-0.1,0-0.1,0L49,37z M39.4,37l2.2-6.6c0,0-0.1,0-0.1,0L39.4,37z M35.6,35l-4.7,5.2c0,0,0,0,0.1,0.1L35.6,35z
	 M33.2,31.5l-6.4,2.7c0,0,0,0.1,0,0.1L33.2,31.5z M33.2,22.2l-6.4-2.8c0,0,0,0,0,0.1L33.2,22.2z M35.6,18.8l4.6,5.3c0,0,0,0,0.1-0.1
	L35.6,18.8z M39.4,16.7l2.1,6.7c0,0,0.1,0,0.1,0L39.4,16.7z M44.2,42.2c1.7,0,3.5-0.3,5.1-1l-5.5-12.9c0.1,0,0.2-0.1,0.3-0.1
	c0.1,0,0.1,0,0.2,0V42.2z M49.3,41.2c1.8-0.8,3.3-1.9,4.5-3.4l-10.7-9c0-0.1,0.1-0.1,0.3-0.2c0.1-0.1,0.3-0.2,0.4-0.3L49.3,41.2z
	 M53.9,37.7c1.3-1.6,2.1-3.3,2.6-5L43,28.8c-0.1,0.2-0.1,0.3-0.1,0.3c0,0,0,0,0.1-0.1L53.9,37.7z M56.4,32.8c0.6-1.9,0.8-4,0.8-6
	h-14c0,1-0.1,1.6-0.2,1.7L56.4,32.8z M57.2,26.9c0-2-0.2-4-0.8-6l-13.3,4.2c0.1,0.2,0.2,0.7,0.2,1.7H57.2z M56.5,21
	c-0.5-1.7-1.3-3.5-2.6-5.1l-10.7,9C43,24.9,43,24.8,43,24.8c0,0,0-0.1,0-0.1c0,0,0,0,0,0.1c0,0,0,0.1,0.1,0.2L56.5,21z M53.9,16
	c-1.2-1.5-2.7-2.7-4.6-3.5l-5.5,12.9c-0.2-0.1-0.4-0.2-0.5-0.3C43.1,25,43,24.9,43,24.8L53.9,16z M49.3,12.5c-1.6-0.7-3.4-1-5.1-1
	v14c0,0-0.1,0-0.2,0c-0.1,0-0.2,0-0.3-0.1L49.3,12.5z M44.2,11.5c-1.7,0-3.5,0.3-5.1,1l5.5,12.9c-0.1,0-0.2,0.1-0.3,0.1
	c-0.1,0-0.1,0-0.2,0V11.5z M39.1,12.5c-1.9,0.8-3.4,2-4.6,3.5l10.9,8.8c0,0.1-0.1,0.1-0.3,0.3c-0.1,0.1-0.3,0.2-0.5,0.3L39.1,12.5z
	 M34.6,15.9c-1.3,1.5-2.1,3.3-2.6,5l13.3,4.2c0.1-0.2,0.1-0.3,0.1-0.4c0,0,0,0-0.1,0.2L34.6,15.9z M31.9,21
	c-0.6,1.9-0.7,3.9-0.7,5.8h14c0-1.1,0.1-1.6,0.2-1.9L31.9,21z M31.2,26.9c0,2,0.2,3.9,0.7,5.8l13.4-3.9c-0.1-0.2-0.2-0.8-0.2-1.9
	H31.2z M32,32.8c0.5,1.7,1.3,3.4,2.6,4.9l10.9-8.8c0.1,0.1,0.1,0.1,0.1,0.1c0-0.1-0.1-0.2-0.2-0.4L32,32.8z M34.6,37.8
	c1.2,1.4,2.7,2.6,4.5,3.4l5.5-12.9c0.2,0.1,0.3,0.2,0.4,0.3c0.1,0.1,0.2,0.2,0.3,0.2L34.6,37.8z M39.1,41.2c1.6,0.7,3.4,1,5.1,1v-14
	c0,0,0.1,0,0.2,0c0.1,0,0.2,0,0.3,0.1L39.1,41.2z M44.2,22.9c1.1,0,1.9,0.2,2.5,0.4l4.5-13.3c-2.3-0.8-4.6-1.1-7-1.1V22.9z
	 M46.9,23.4c0.6,0.2,1,0.4,1.2,0.6l9.4-10.4c-1.9-1.7-4-2.8-6.4-3.6L46.9,23.4z M48.2,24.1c0.2,0.1,0.4,0.4,0.6,0.8l12.9-5.4
	c-1-2.3-2.4-4.3-4.3-6L48.2,24.1z M48.8,25.1c0.1,0.3,0.3,0.9,0.3,1.8h14c0-2.5-0.4-5.1-1.5-7.5L48.8,25.1z M49.1,26.9
	c0,1-0.2,1.5-0.3,1.8l12.8,5.7c1.1-2.4,1.5-5,1.5-7.5H49.1z M48.8,28.8c-0.2,0.5-0.4,0.7-0.7,1l9.4,10.4c1.8-1.7,3.2-3.7,4.2-5.9
	L48.8,28.8z M48.2,29.7c-0.2,0.2-0.6,0.4-1.3,0.7l4.2,13.4c2.3-0.7,4.4-1.9,6.3-3.5L48.2,29.7z M46.8,30.4c-0.6,0.2-1.5,0.4-2.5,0.4
	v14c2.4,0,4.8-0.3,7-1.1L46.8,30.4z M44.2,30.8c-1.1,0-2-0.2-2.6-0.4l-4.5,13.3c2.3,0.8,4.7,1.1,7.1,1.1V30.8z M41.5,30.4
	c-0.6-0.2-1-0.5-1.3-0.7L31,40.2c1.8,1.6,3.9,2.7,6.2,3.5L41.5,30.4z M40.3,29.8c-0.3-0.2-0.5-0.6-0.7-1.1l-12.8,5.7
	c1,2.2,2.4,4.2,4.2,5.8L40.3,29.8z M39.6,28.8c-0.1-0.3-0.3-0.9-0.3-2h-14c0,2.5,0.4,5,1.4,7.4L39.6,28.8z M39.3,26.9
	c0-1,0.2-1.6,0.3-1.9l-12.9-5.5c-1,2.4-1.4,4.9-1.4,7.4H39.3z M39.6,25c0.2-0.5,0.5-0.8,0.6-1L31,13.5c-1.9,1.7-3.3,3.7-4.3,5.9
	L39.6,25z M40.3,24c0.2-0.2,0.6-0.5,1.2-0.6L37.2,10c-2.3,0.7-4.4,1.9-6.3,3.6L40.3,24z M41.6,23.3c0.6-0.2,1.5-0.4,2.6-0.4v-14
	c-2.4,0-4.8,0.3-7.1,1.1L41.6,23.3z M77.5,33.3l5.4,4.5c0,0,0.1-0.1,0.1-0.1L77.5,33.3z M78.8,30.7l-6.7-2.1c0,0,0,0.1,0,0.1
	L78.8,30.7z M78.8,23l-6.7,2c0,0.1,0,0.1,0,0.1L78.8,23z M77.5,20.4l-5.4,4.4c0,0,0.1,0.1,0.1,0.1L77.5,20.4z M69,20.4l5.4,4.5
	c0,0,0.1-0.1,0.1-0.1L69,20.4z M67.7,23L61,20.9c0,0,0,0.1,0,0.1L67.7,23z M67.7,30.7l-6.7,2c0,0,0,0.1,0,0.1L67.7,30.7z M69,33.3
	l-5.4,4.4c0,0,0.1,0.1,0.1,0.1L69,33.3z M78.1,16.7l-2.2,6.6c0,0,0.1,0,0.1,0L78.1,16.7z M81.8,18.8L77.2,24c0,0,0,0,0.1,0.1
	L81.8,18.8z M84.3,22.2l-6.5,2.7c0,0,0,0.1,0.1,0.1L84.3,22.2z M84.3,31.5l-6.4-2.8c0,0,0,0.1,0,0.1L84.3,31.5z M81.8,35l4.6,5.3
	c0,0,0,0,0.1-0.1L81.8,35z M78.1,37L76,30.4c0,0-0.1,0-0.1,0L78.1,37z M68.4,37l2.2-6.6c0,0-0.1,0-0.1,0L68.4,37z M64.7,35L60,40.2
	c0,0,0,0,0.1,0.1L64.7,35z M62.2,31.5l-6.4,2.7c0,0,0,0.1,0,0.1L62.2,31.5z M62.2,22.2l-6.4-2.8c0,0,0,0,0,0.1L62.2,22.2z
	 M64.7,18.8l4.6,5.3c0,0,0,0,0.1-0.1L64.7,18.8z M68.4,16.7l2.1,6.7c0,0,0.1,0,0.1,0L68.4,16.7z M73.3,42.2c1.7,0,3.5-0.3,5.1-1
	l-5.5-12.9c0.1,0,0.2-0.1,0.3-0.1c0.1,0,0.1,0,0.2,0V42.2z M78.4,41.2c1.8-0.8,3.3-1.9,4.5-3.4l-10.7-9c0-0.1,0.1-0.1,0.3-0.2
	c0.1-0.1,0.3-0.2,0.4-0.3L78.4,41.2z M83,37.7c1.3-1.6,2.1-3.3,2.6-5l-13.4-3.9C72,29,72,29.1,72,29.1c0,0,0,0,0.1-0.1L83,37.7z
	 M85.5,32.8c0.6-1.9,0.8-4,0.8-6h-14c0,1-0.1,1.6-0.2,1.7L85.5,32.8z M86.3,26.9c0-2-0.2-4-0.8-6l-13.3,4.2c0.1,0.2,0.2,0.7,0.2,1.7
	H86.3z M85.5,21c-0.5-1.7-1.3-3.5-2.6-5.1l-10.7,9c-0.1-0.1-0.1-0.1-0.1-0.2c0,0,0-0.1,0-0.1c0,0,0,0,0,0.1c0,0,0,0.1,0.1,0.2
	L85.5,21z M83,16c-1.2-1.5-2.7-2.7-4.6-3.5l-5.5,12.9c-0.2-0.1-0.4-0.2-0.5-0.3c-0.1-0.1-0.2-0.2-0.3-0.3L83,16z M78.4,12.5
	c-1.6-0.7-3.4-1-5.1-1v14c0,0-0.1,0-0.2,0c-0.1,0-0.2,0-0.3-0.1L78.4,12.5z M73.3,11.5c-1.7,0-3.5,0.3-5.1,1l5.5,12.9
	c-0.1,0-0.2,0.1-0.3,0.1c-0.1,0-0.1,0-0.2,0V11.5z M68.2,12.5c-1.9,0.8-3.4,2-4.6,3.5l10.9,8.8c0,0.1-0.1,0.1-0.3,0.3
	c-0.1,0.1-0.3,0.2-0.5,0.3L68.2,12.5z M63.7,15.9c-1.3,1.5-2.1,3.3-2.6,5l13.3,4.2c0.1-0.2,0.1-0.3,0.1-0.4c0,0,0,0-0.1,0.2
	L63.7,15.9z M61,21c-0.6,1.9-0.7,3.9-0.7,5.8h14c0-1.1,0.1-1.6,0.2-1.9L61,21z M60.2,26.9c0,2,0.2,3.9,0.7,5.8l13.4-3.9
	c-0.1-0.2-0.2-0.8-0.2-1.9H60.2z M61,32.8c0.5,1.7,1.3,3.4,2.6,4.9l10.9-8.8c0.1,0.1,0.1,0.1,0.1,0.1c0-0.1-0.1-0.2-0.2-0.4L61,32.8
	z M63.7,37.8c1.2,1.4,2.7,2.6,4.5,3.4l5.5-12.9c0.2,0.1,0.3,0.2,0.4,0.3c0.1,0.1,0.2,0.2,0.3,0.2L63.7,37.8z M68.2,41.2
	c1.6,0.7,3.4,1,5.1,1v-14c0,0,0.1,0,0.2,0c0.1,0,0.2,0,0.3,0.1L68.2,41.2z M73.3,22.9c1.1,0,1.9,0.2,2.5,0.4l4.5-13.3
	c-2.3-0.8-4.6-1.1-7-1.1V22.9z M76,23.4c0.6,0.2,1,0.4,1.2,0.6l9.4-10.4c-1.9-1.7-4-2.8-6.4-3.6L76,23.4z M77.2,24.1
	c0.2,0.1,0.4,0.4,0.6,0.8l12.9-5.4c-1-2.3-2.4-4.3-4.3-6L77.2,24.1z M77.9,25.1c0.1,0.3,0.3,0.9,0.3,1.8h14c0-2.5-0.4-5.1-1.5-7.5
	L77.9,25.1z M78.2,26.9c0,1-0.2,1.5-0.3,1.8l12.8,5.7c1.1-2.4,1.5-5,1.5-7.5H78.2z M77.8,28.8c-0.2,0.5-0.4,0.7-0.7,1l9.4,10.4
	c1.8-1.7,3.2-3.7,4.2-5.9L77.8,28.8z M77.2,29.7c-0.2,0.2-0.6,0.4-1.3,0.7l4.2,13.4c2.3-0.7,4.4-1.9,6.3-3.5L77.2,29.7z M75.8,30.4
	c-0.6,0.2-1.5,0.4-2.5,0.4v14c2.4,0,4.8-0.3,7-1.1L75.8,30.4z M73.3,30.8c-1.1,0-2-0.2-2.6-0.4l-4.5,13.3c2.3,0.8,4.7,1.1,7.1,1.1
	V30.8z M70.6,30.4c-0.6-0.2-1-0.5-1.3-0.7l-9.2,10.5c1.8,1.6,3.9,2.7,6.2,3.5L70.6,30.4z M69.4,29.8c-0.3-0.2-0.5-0.6-0.7-1.1
	l-12.8,5.7c1,2.2,2.4,4.2,4.2,5.8L69.4,29.8z M68.7,28.8c-0.1-0.3-0.3-0.9-0.3-2h-14c0,2.5,0.4,5,1.4,7.4L68.7,28.8z M68.4,26.9
	c0-1,0.2-1.6,0.3-1.9l-12.9-5.5c-1,2.4-1.4,4.9-1.4,7.4H68.4z M68.7,25c0.2-0.5,0.5-0.8,0.6-1l-9.2-10.5c-1.9,1.7-3.3,3.7-4.3,5.9
	L68.7,25z M69.4,24c0.2-0.2,0.6-0.5,1.2-0.6L66.3,10c-2.3,0.7-4.4,1.9-6.3,3.6L69.4,24z M70.7,23.3c0.6-0.2,1.5-0.4,2.6-0.4v-14
	c-2.4,0-4.8,0.3-7.1,1.1L70.7,23.3z M97.1,28l5.8-3.9c-1.3-1.9-3.5-3.1-5.8-3.1V28z M93,28v-7c-3.9,0-7,3.1-7,7H93z M93,37v7
	c3.9,0,7-3.1,7-7H93z M87.5,37h-7c0,3.9,3.1,7,7,7V37z M87.5,9.7v-7c-3.9,0-7,3.1-7,7H87.5z M93,9.7h7c0-3.9-3.1-7-7-7V9.7z
	 M93,25.3h-7c0,3.9,3.1,7,7,7V25.3z M97.1,25.3v7c2.3,0,4.4-1.1,5.7-3L97.1,25.3z M103.1,16.7v-7c-2.3,0-4.4,1.1-5.7,3L103.1,16.7z
	 M109,16.7l5.7,4c1.5-2.1,1.7-4.9,0.5-7.2c-1.2-2.3-3.6-3.8-6.2-3.8V16.7z M102.1,26.5l-5.7-4c-1.7,2.4-1.7,5.6,0,8L102.1,26.5z
	 M109.3,37v7c2.6,0,5-1.4,6.2-3.7c1.2-2.3,1.1-5.1-0.4-7.2L109.3,37z M103.1,37l-5.8,3.9c1.3,1.9,3.5,3.1,5.8,3.1V37z M97.1,21H93
	v14h4.1V21z M86,28v9h14v-9H86z M93,30h-5.5v14H93V30z M94.5,37V9.7h-14V37H94.5z M87.5,16.7H93v-14h-5.5V16.7z M86,9.7v15.6h14V9.7
	H86z M93,32.3h4.1v-14H93V32.3z M102.8,29.3l6-8.6l-11.4-8.1l-6,8.6L102.8,29.3z M103.1,23.7h5.8v-14h-5.8V23.7z M103.2,12.7
	l-6.8,9.7l11.5,8l6.8-9.8L103.2,12.7z M96.4,30.4l7.2,10.5l11.5-7.9l-7.2-10.5L96.4,30.4z M109.3,30h-6.2v14h6.2V30z M108.9,33.1
	l-6-9l-11.6,7.8l6,9L108.9,33.1z M116,37v7c3.9,0,7-3.1,7-7H116z M110.5,37h-7c0,3.9,3.1,7,7,7V37z M110.5,17.1v-7c-3.9,0-7,3.1-7,7
	H110.5z M116,17.1h7c0-3.9-3.1-7-7-7V17.1z M115.3,13.9l-5.2-4.7c0,0,0,0,0,0L115.3,13.9z M111.1,13.9l-5.3,4.6
	c0.1,0.1,0.1,0.2,0.2,0.2L111.1,13.9z M111.1,9.8l-5.2-4.7c0,0,0,0,0,0L111.1,9.8z M115.3,9.8l-5.2,4.7c0,0,0.1,0.1,0.1,0.1
	L115.3,9.8z M116,30h-5.5v14h5.5V30z M117.5,37V17.1h-14V37H117.5z M110.5,24.1h5.5v-14h-5.5V24.1z M109,17.1V37h14V17.1H109z
	 M109.2,11.8c0-0.4,0.1-1,0.3-1.5c0.2-0.5,0.5-0.9,0.7-1.2l10.3,9.4c1.7-1.8,2.7-4.2,2.7-6.8H109.2z M110.2,9.2
	c0.4-0.5,1-0.9,1.6-1.1c0.6-0.3,1.1-0.3,1.5-0.3v14c2.5,0,5.2-0.9,7.3-3.1L110.2,9.2z M113.2,7.8c0.3,0,0.8,0.1,1.4,0.3
	c0.6,0.2,1.1,0.6,1.5,1L106,18.7c2,2.1,4.7,3,7.2,3V7.8z M116.4,9.3c0.2,0.3,0.5,0.7,0.7,1.2c0.2,0.5,0.3,1,0.3,1.4h-14
	c0,2.5,0.9,4.8,2.5,6.7L116.4,9.3z M117.3,11.8c0,0.4-0.1,0.9-0.3,1.4c-0.2,0.5-0.5,0.9-0.8,1.3l-10.4-9.4c-1.7,1.9-2.6,4.2-2.6,6.7
	H117.3z M116.3,14.5c-0.4,0.4-0.9,0.8-1.5,1.1c-0.6,0.3-1.1,0.3-1.5,0.3v-14c-2.7,0-5.3,1-7.3,3.2L116.3,14.5z M113.2,15.9
	c-0.4,0-1-0.1-1.6-0.3c-0.6-0.3-1.1-0.7-1.5-1l10.3-9.4c-2-2.1-4.6-3.2-7.3-3.2V15.9z M110.3,14.7c-0.3-0.3-0.6-0.7-0.8-1.3
	c-0.2-0.6-0.3-1.1-0.3-1.5h14c0-2.6-1-5-2.8-6.9L110.3,14.7z M134.7,34.4l-2.6-6.5c0,0,0,0-0.1,0L134.7,34.4z M138,32.5l5.8-3.9
	c-1.1-1.6-2.8-2.7-4.7-3c-1.9-0.3-3.9,0.2-5.4,1.3L138,32.5z M139.6,34.9l4.7,5.2c2.6-2.3,3.1-6.2,1.2-9.1L139.6,34.9z M137.8,36.1
	l-3.3-6.2c0,0-0.1,0-0.1,0.1L137.8,36.1z M135.7,37l2.1,6.7c0,0,0.1,0,0.1,0L135.7,37z M133.3,37.5l-1.1-6.9c-0.1,0-0.1,0-0.2,0
	L133.3,37.5z M125.7,37l2.1-6.7c0,0,0,0-0.1,0L125.7,37z M121.9,35l-4.6,5.3c0,0,0,0,0.1,0.1L121.9,35z M119.4,31.5l-6.4,2.7
	c0,0,0,0.1,0,0.1L119.4,31.5z M119.3,22.2l-6.5-2.7c0,0,0,0,0,0.1L119.3,22.2z M121.7,18.8l4.7,5.1l0,0L121.7,18.8z M125.2,16.7
	l2.3,6.6c0,0,0.1,0,0.1,0L125.2,16.7z M134.2,16.6l-2.3,6.6l0,0L134.2,16.6z M137.8,18.7l-4.7,5.2c0,0,0.1,0,0.1,0.1L137.8,18.7z
	 M140.2,21.9l6.3-3l0,0L140.2,21.9z M141.1,29v7c3.9,0,7-3.1,7-7H141.1z M124.5,29v-7c-2,0-4,0.9-5.3,2.4c-1.3,1.5-1.9,3.6-1.6,5.6
	L124.5,29z M126.7,33.6l-4.4,5.5c0,0,0,0,0.1,0L126.7,33.6z M126,20.3l-5.5-4.3c0,0-0.1,0.1-0.1,0.1L126,20.3z M124.8,22.7l-6.7-2.1
	c0,0.1,0,0.1,0,0.2L124.8,22.7z M124.4,26.3l-7-0.1c0,1.9,0.7,3.7,2,5c1.3,1.3,3.1,2.1,5,2.1V26.3z M135.3,26.3v7c3.9,0,7-3.1,7-7
	H135.3z M134.8,22.8l-6.7,2.1l0,0L134.8,22.8z M133.6,20.3l-5.6,4.2c0.1,0.1,0.1,0.2,0.2,0.2L133.6,20.3z M131.8,18.9l-3,6.3
	c0.1,0,0.2,0.1,0.3,0.1L131.8,18.9z M131.2,42c2.1,0,4.2-0.4,6.2-1.2l-5.3-13c-0.2,0.1-0.5,0.2-0.9,0.2V42z M137.3,40.9
	c1.8-0.7,3.4-1.7,4.9-2.8l-8.4-11.2c-0.6,0.5-1.2,0.8-1.6,0.9L137.3,40.9z M132.2,36.4l1.6,2.3l11.6-7.8l-1.6-2.3L132.2,36.4z
	 M134.9,29.6c0,0-0.1,0.1-0.4,0.3l6.6,12.3c1.1-0.6,2.1-1.3,3.1-2.2L134.9,29.6z M134.4,30c-0.2,0.1-0.5,0.3-0.9,0.4l4.4,13.3
	c1.2-0.4,2.3-0.9,3.4-1.5L134.4,30z M133.6,30.3c-0.4,0.1-0.9,0.2-1.4,0.3l2.2,13.8c1.1-0.2,2.3-0.4,3.4-0.8L133.6,30.3z M132,30.7
	c-0.4,0.1-0.8,0.1-1.2,0.1v14c1.3,0,2.5-0.1,3.8-0.4L132,30.7z M130.8,30.8c-1.2,0-2.2-0.2-2.9-0.4l-4.3,13.3
	c2.3,0.7,4.7,1.1,7.2,1.1V30.8z M127.8,30.4c-0.7-0.2-1.1-0.5-1.4-0.7l-9.1,10.6c1.9,1.6,4,2.7,6.3,3.4L127.8,30.4z M126.5,29.7
	c-0.3-0.2-0.5-0.5-0.7-1L113,34.4c1,2.2,2.4,4.2,4.3,5.9L126.5,29.7z M125.8,28.8c-0.1-0.3-0.3-0.9-0.3-2h-14c0,2.5,0.4,5,1.4,7.4
	L125.8,28.8z M125.5,26.9c0-1,0.2-1.6,0.3-2l-13-5.2c-0.9,2.3-1.3,4.8-1.3,7.3H125.5z M125.8,24.9c0.2-0.5,0.5-0.8,0.6-1l-9.5-10.3
	c-1.8,1.7-3.1,3.7-4.1,5.9L125.8,24.9z M126.4,23.9c0.3-0.2,0.6-0.5,1.1-0.6L123,10.1c-2.3,0.8-4.3,2-6.1,3.6L126.4,23.9z
	 M127.6,23.3c0.5-0.2,1.2-0.3,2.2-0.3v-14c-2.4,0-4.7,0.4-6.9,1.2L127.6,23.3z M129.8,22.9c0.8,0,1.6,0.1,2.2,0.3l4.5-13.3
	c-2.2-0.7-4.4-1.1-6.7-1.1V22.9z M132,23.3c0.5,0.2,0.9,0.4,1.2,0.6l9.4-10.4c-1.8-1.6-3.8-2.7-6-3.5L132,23.3z M133.2,24
	c0.2,0.2,0.5,0.5,0.7,0.9l12.7-5.9c-1-2.1-2.4-4-4.2-5.5L133.2,24z M133.9,24.9c0.1,0.2,0.2,0.6,0.2,1.4h14c0-2.5-0.5-5-1.6-7.3
	L133.9,24.9z M134.1,26.3V29h14v-2.7H134.1z M141.1,22h-16.7v14h16.7V22z M117.5,30c0.5,3.1,1.7,6.6,4.8,9.1l8.7-10.9
	c0.2,0.1,0.3,0.3,0.4,0.4c0.1,0.1,0.1,0.2,0.1,0.2c0,0,0,0-0.1-0.2c0-0.1-0.1-0.3-0.1-0.6L117.5,30z M122.4,39.2
	c2.6,2.1,5.7,2.9,8.8,2.9V28c-0.3,0-0.4,0-0.4,0c0,0,0,0,0.1,0c0,0,0.1,0,0.1,0.1L122.4,39.2z M129.8,11.5c-1.7,0-3.3,0.3-4.9,1
	l5.6,12.8c-0.1,0.1-0.3,0.1-0.4,0.1c-0.1,0-0.2,0-0.3,0V11.5z M124.9,12.5c-1.8,0.8-3.3,2-4.4,3.4l11,8.7c-0.1,0.2-0.4,0.5-1,0.7
	L124.9,12.5z M120.4,16.1c-1.1,1.4-1.8,3-2.2,4.5l13.4,4.2c0.1-0.2,0.1-0.3,0.2-0.4c0-0.1,0,0-0.1,0.1L120.4,16.1z M118.1,20.7
	c-0.5,1.7-0.7,3.6-0.7,5.4l14,0.3c0-1,0.1-1.5,0.2-1.8L118.1,20.7z M124.4,33.3h10.9v-14h-10.9V33.3z M142.3,26.3
	c0-1.9-0.2-3.8-0.8-5.6l-13.3,4.2c0,0.1,0.1,0.6,0.1,1.4H142.3z M141.5,20.7c-0.5-1.6-1.3-3.3-2.5-4.8l-10.8,9
	c-0.1-0.1-0.1-0.2-0.1-0.2c0,0,0,0,0,0.1c0,0,0,0.1,0.1,0.2L141.5,20.7z M139.1,16.1c-1.1-1.5-2.7-2.8-4.6-3.6l-5.5,12.9
	c-0.6-0.2-0.9-0.6-1.1-0.8L139.1,16.1z M134.8,12.6c-1.5-0.7-3.2-1.2-5-1.2v14c-0.4,0-0.8-0.1-1-0.2L134.8,12.6z"/>
<path class="st0" d="M19.1,34.3c0.9,0,1.7-0.1,2.4-0.4c0.8-0.3,1.4-0.7,1.9-1.3c0.5-0.6,1-1.4,1.2-2.3c0.3-0.9,0.5-2.1,0.5-3.4
	s-0.2-2.5-0.5-3.4c-0.3-0.9-0.7-1.7-1.2-2.3c-0.5-0.6-1.2-1-1.9-1.3c-0.7-0.3-1.5-0.4-2.4-0.4h-4.9v14.8H19.1z M8.7,37V9.7h5.5v7
	h4.9c1.8,0,3.4,0.2,4.9,0.7c1.5,0.5,2.7,1.1,3.8,2c1,0.9,1.8,1.9,2.4,3.2c0.6,1.2,0.9,2.7,0.9,4.2c0,1.6-0.3,3-0.9,4.2
	c-0.5,1.2-1.3,2.3-2.4,3.2c-1,0.9-2.3,1.6-3.8,2c-1.5,0.5-3.1,0.7-4.9,0.7H8.7z M44.2,35.2c0.8,0,1.6-0.2,2.3-0.5
	c0.7-0.3,1.4-0.8,1.9-1.4c0.5-0.7,1-1.5,1.3-2.6c0.3-1.1,0.5-2.4,0.5-3.9c0-1.5-0.2-2.8-0.5-3.9c-0.3-1.1-0.7-1.9-1.3-2.6
	c-0.5-0.7-1.2-1.2-1.9-1.5c-0.7-0.3-1.5-0.5-2.3-0.5c-0.8,0-1.6,0.2-2.3,0.5c-0.7,0.3-1.4,0.8-1.9,1.5c-0.5,0.7-1,1.5-1.3,2.6
	c-0.3,1.1-0.5,2.4-0.5,3.9c0,1.5,0.2,2.8,0.5,3.9c0.3,1.1,0.8,1.9,1.3,2.6c0.5,0.7,1.2,1.1,1.9,1.4S43.4,35.2,44.2,35.2z M44.2,15.9
	c1.7,0,3.3,0.2,4.8,0.7c1.5,0.5,2.7,1.2,3.8,2.1c1,0.9,1.8,2.1,2.4,3.4c0.6,1.4,0.9,2.9,0.9,4.6c0,1.8-0.3,3.3-0.9,4.7
	c-0.6,1.4-1.4,2.5-2.4,3.4c-1,0.9-2.3,1.6-3.8,2.1c-1.5,0.5-3.1,0.7-4.8,0.7c-1.8,0-3.4-0.2-4.8-0.7c-1.5-0.5-2.7-1.2-3.7-2.1
	c-1-0.9-1.9-2.1-2.5-3.4c-0.6-1.4-0.9-2.9-0.9-4.7c0-1.7,0.3-3.3,0.9-4.6c0.6-1.4,1.4-2.5,2.5-3.4c1-0.9,2.3-1.6,3.7-2.1
	C40.8,16.2,42.4,15.9,44.2,15.9z M73.3,35.2c0.8,0,1.6-0.2,2.3-0.5c0.7-0.3,1.4-0.8,1.9-1.4c0.5-0.7,1-1.5,1.3-2.6
	c0.3-1.1,0.5-2.4,0.5-3.9c0-1.5-0.2-2.8-0.5-3.9c-0.3-1.1-0.7-1.9-1.3-2.6c-0.5-0.7-1.2-1.2-1.9-1.5c-0.7-0.3-1.5-0.5-2.3-0.5
	s-1.6,0.2-2.3,0.5c-0.7,0.3-1.4,0.8-1.9,1.5c-0.5,0.7-1,1.5-1.3,2.6c-0.3,1.1-0.5,2.4-0.5,3.9c0,1.5,0.2,2.8,0.5,3.9
	c0.3,1.1,0.8,1.9,1.3,2.6c0.5,0.7,1.2,1.1,1.9,1.4C71.7,35.1,72.4,35.2,73.3,35.2z M73.3,15.9c1.7,0,3.3,0.2,4.8,0.7
	c1.5,0.5,2.7,1.2,3.8,2.1c1,0.9,1.8,2.1,2.4,3.4c0.6,1.4,0.9,2.9,0.9,4.6c0,1.8-0.3,3.3-0.9,4.7c-0.6,1.4-1.4,2.5-2.4,3.4
	c-1,0.9-2.3,1.6-3.8,2.1c-1.5,0.5-3.1,0.7-4.8,0.7c-1.8,0-3.4-0.2-4.8-0.7c-1.5-0.5-2.7-1.2-3.7-2.1c-1-0.9-1.9-2.1-2.5-3.4
	c-0.6-1.4-0.9-2.9-0.9-4.7c0-1.7,0.3-3.3,0.9-4.6c0.6-1.4,1.4-2.5,2.5-3.4c1-0.9,2.3-1.6,3.7-2.1C69.9,16.2,71.5,15.9,73.3,15.9z
	 M97.1,28H93v9h-5.5V9.7H93v15.6h4.1l6-8.6h5.8l-6.8,9.8l7.2,10.5h-6.2L97.1,28z M116,37h-5.5V17.1h5.5V37z M116.2,11.8
	c0,0.8-0.3,1.5-0.8,2.1c-0.5,0.6-1.2,0.9-2.1,0.9s-1.6-0.3-2.1-0.9c-0.5-0.6-0.8-1.3-0.8-2.1c0-0.8,0.3-1.5,0.8-2
	c0.5-0.6,1.3-0.9,2.1-0.9c0.9,0,1.6,0.3,2.1,0.9C115.9,10.4,116.2,11.1,116.2,11.8z M131.2,35c1.3,0,2.5-0.2,3.5-0.7
	c1.1-0.4,2.2-1.1,3.3-1.9l1.6,2.3c-0.5,0.4-1.1,0.8-1.8,1.2c-0.6,0.4-1.4,0.7-2.1,0.9c-0.8,0.2-1.5,0.4-2.4,0.5
	c-0.8,0.2-1.7,0.2-2.5,0.2c-1.8,0-3.5-0.2-5.1-0.7c-1.5-0.5-2.8-1.2-3.9-2.1c-1.1-0.9-1.9-2.1-2.5-3.4c-0.6-1.4-0.9-2.9-0.9-4.7
	c0-1.7,0.3-3.3,0.8-4.6c0.6-1.4,1.4-2.5,2.3-3.4c1-0.9,2.2-1.6,3.6-2.1c1.4-0.5,2.9-0.7,4.6-0.7c1.6,0,3,0.2,4.4,0.7
	c1.4,0.5,2.6,1.2,3.6,2.1c1,0.9,1.8,2,2.4,3.2c0.6,1.3,0.9,2.7,0.9,4.3V29h-16.7c0.3,2.2,1.1,3.7,2.2,4.6
	C127.9,34.6,129.4,35,131.2,35z M129.8,18.5c-0.8,0-1.5,0.1-2.1,0.4c-0.7,0.3-1.2,0.7-1.7,1.4c-0.5,0.6-0.9,1.4-1.2,2.4
	c-0.3,1-0.4,2.2-0.5,3.6h10.9c0-1.4-0.2-2.5-0.5-3.5c-0.3-1-0.7-1.8-1.2-2.4c-0.5-0.6-1.1-1.1-1.8-1.4
	C131.1,18.6,130.5,18.5,129.8,18.5z"/>
<line class="st2" x1="58.5" y1="27.5" x2="61.5" y2="27.5"/>
<circle cx="48.5" cy="26.5" r="4.5"/>
<circle cx="77.5" cy="26.5" r="4.5"/>
</svg>
