<svg width="149" height="48" viewBox="0 0 149 48" fill="none" xmlns="http://www.w3.org/2000/svg">
<path d="M19.065 34.27C19.949 34.27 20.755 34.14 21.483 33.88C22.237 33.594 22.874 33.152 23.394 32.554C23.94 31.956 24.356 31.189 24.642 30.253C24.954 29.317 25.11 28.186 25.11 26.86C25.11 25.534 24.954 24.403 24.642 23.467C24.356 22.531 23.94 21.764 23.394 21.166C22.874 20.568 22.237 20.139 21.483 19.879C20.755 19.593 19.949 19.45 19.065 19.45H14.19V34.27H19.065ZM8.73001 37V9.7H14.19V16.72H19.065C20.859 16.72 22.484 16.954 23.94 17.422C25.422 17.89 26.683 18.566 27.723 19.45C28.763 20.334 29.556 21.4 30.102 22.648C30.674 23.896 30.96 25.3 30.96 26.86C30.96 28.42 30.674 29.824 30.102 31.072C29.556 32.32 28.763 33.386 27.723 34.27C26.683 35.154 25.422 35.83 23.94 36.298C22.484 36.766 20.859 37 19.065 37H8.73001ZM44.2032 35.245C45.0352 35.245 45.8152 35.089 46.5432 34.777C47.2712 34.465 47.9082 33.984 48.4542 33.334C49.0002 32.658 49.4292 31.787 49.7412 30.721C50.0792 29.655 50.2482 28.368 50.2482 26.86C50.2482 25.352 50.0792 24.065 49.7412 22.999C49.4292 21.933 49.0002 21.075 48.4542 20.425C47.9082 19.749 47.2712 19.255 46.5432 18.943C45.8152 18.631 45.0352 18.475 44.2032 18.475C43.3712 18.475 42.5912 18.631 41.8632 18.943C41.1352 19.255 40.4982 19.749 39.9522 20.425C39.4062 21.075 38.9642 21.933 38.6262 22.999C38.3142 24.065 38.1582 25.352 38.1582 26.86C38.1582 28.368 38.3142 29.655 38.6262 30.721C38.9642 31.787 39.4062 32.658 39.9522 33.334C40.4982 33.984 41.1352 34.465 41.8632 34.777C42.5912 35.089 43.3712 35.245 44.2032 35.245ZM44.2032 15.94C45.9452 15.94 47.5442 16.187 49.0002 16.681C50.4822 17.149 51.7432 17.851 52.7832 18.787C53.8232 19.697 54.6292 20.841 55.2012 22.219C55.7992 23.571 56.0982 25.118 56.0982 26.86C56.0982 28.628 55.7992 30.188 55.2012 31.54C54.6292 32.892 53.8232 34.036 52.7832 34.972C51.7432 35.882 50.4822 36.571 49.0002 37.039C47.5442 37.533 45.9452 37.78 44.2032 37.78C42.4352 37.78 40.8232 37.533 39.3672 37.039C37.9112 36.571 36.6632 35.882 35.6232 34.972C34.5832 34.036 33.7642 32.892 33.1662 31.54C32.5942 30.188 32.3082 28.628 32.3082 26.86C32.3082 25.118 32.5942 23.571 33.1662 22.219C33.7642 20.841 34.5832 19.697 35.6232 18.787C36.6632 17.851 37.9112 17.149 39.3672 16.681C40.8232 16.187 42.4352 15.94 44.2032 15.94ZM73.2659 35.245C74.0979 35.245 74.8779 35.089 75.6059 34.777C76.3339 34.465 76.9709 33.984 77.5169 33.334C78.0629 32.658 78.4919 31.787 78.8039 30.721C79.1419 29.655 79.3109 28.368 79.3109 26.86C79.3109 25.352 79.1419 24.065 78.8039 22.999C78.4919 21.933 78.0629 21.075 77.5169 20.425C76.9709 19.749 76.3339 19.255 75.6059 18.943C74.8779 18.631 74.0979 18.475 73.2659 18.475C72.4339 18.475 71.6539 18.631 70.9259 18.943C70.1979 19.255 69.5609 19.749 69.0149 20.425C68.4689 21.075 68.0269 21.933 67.6889 22.999C67.3769 24.065 67.2209 25.352 67.2209 26.86C67.2209 28.368 67.3769 29.655 67.6889 30.721C68.0269 31.787 68.4689 32.658 69.0149 33.334C69.5609 33.984 70.1979 34.465 70.9259 34.777C71.6539 35.089 72.4339 35.245 73.2659 35.245ZM73.2659 15.94C75.0079 15.94 76.6069 16.187 78.0629 16.681C79.5449 17.149 80.8059 17.851 81.8459 18.787C82.8859 19.697 83.6919 20.841 84.2639 22.219C84.8619 23.571 85.1609 25.118 85.1609 26.86C85.1609 28.628 84.8619 30.188 84.2639 31.54C83.6919 32.892 82.8859 34.036 81.8459 34.972C80.8059 35.882 79.5449 36.571 78.0629 37.039C76.6069 37.533 75.0079 37.78 73.2659 37.78C71.4979 37.78 69.8859 37.533 68.4299 37.039C66.9739 36.571 65.7259 35.882 64.6859 34.972C63.6459 34.036 62.8269 32.892 62.2289 31.54C61.6569 30.188 61.3709 28.628 61.3709 26.86C61.3709 25.118 61.6569 23.571 62.2289 22.219C62.8269 20.841 63.6459 19.697 64.6859 18.787C65.7259 17.851 66.9739 17.149 68.4299 16.681C69.8859 16.187 71.4979 15.94 73.2659 15.94ZM97.0635 28.03H92.9685V37H87.5085V9.7H92.9685V25.3H97.0635L103.108 16.72H108.958L102.133 26.47L109.348 37H103.108L97.0635 28.03ZM115.965 37H110.505V17.11H115.965V37ZM116.16 11.845C116.16 12.625 115.887 13.314 115.341 13.912C114.821 14.484 114.119 14.77 113.235 14.77C112.351 14.77 111.636 14.484 111.09 13.912C110.57 13.314 110.31 12.625 110.31 11.845C110.31 11.065 110.57 10.389 111.09 9.817C111.636 9.219 112.351 8.92 113.235 8.92C114.093 8.92 114.795 9.219 115.341 9.817C115.887 10.389 116.16 11.065 116.16 11.845ZM131.176 35.05C132.45 35.05 133.633 34.829 134.725 34.387C135.843 33.945 136.935 33.321 138.001 32.515L139.561 34.855C139.067 35.297 138.482 35.7 137.806 36.064C137.156 36.428 136.441 36.74 135.661 37C134.907 37.234 134.114 37.416 133.282 37.546C132.45 37.702 131.618 37.78 130.786 37.78C128.94 37.78 127.25 37.533 125.716 37.039C124.208 36.571 122.921 35.882 121.855 34.972C120.789 34.036 119.957 32.892 119.359 31.54C118.787 30.188 118.501 28.628 118.501 26.86C118.501 25.118 118.774 23.571 119.32 22.219C119.892 20.841 120.672 19.697 121.66 18.787C122.674 17.851 123.87 17.149 125.248 16.681C126.626 16.187 128.147 15.94 129.811 15.94C131.371 15.94 132.84 16.174 134.218 16.642C135.596 17.11 136.792 17.799 137.806 18.709C138.82 19.593 139.626 20.672 140.224 21.946C140.822 23.22 141.121 24.663 141.121 26.275V29.005H124.468C124.78 31.163 125.521 32.71 126.691 33.646C127.887 34.582 129.382 35.05 131.176 35.05ZM129.811 18.475C129.057 18.475 128.355 18.618 127.705 18.904C127.055 19.19 126.483 19.645 125.989 20.269C125.521 20.893 125.131 21.699 124.819 22.687C124.533 23.675 124.377 24.871 124.351 26.275H135.271C135.271 24.923 135.115 23.753 134.803 22.765C134.491 21.777 134.075 20.971 133.555 20.347C133.061 19.697 132.476 19.229 131.8 18.943C131.15 18.631 130.487 18.475 129.811 18.475Z" fill="#131313"/>
<path d="M21.483 33.88L23.8374 40.4722C23.8803 40.4569 23.923 40.4411 23.9656 40.425L21.483 33.88ZM23.394 32.554L18.2246 27.8341C18.1865 27.8759 18.1489 27.9181 18.1118 27.9608L23.394 32.554ZM24.642 30.253L18.0012 28.0394C17.9826 28.0952 17.9647 28.1512 17.9475 28.2075L24.642 30.253ZM24.642 23.467L17.9475 25.5125C17.9647 25.5688 17.9826 25.6248 18.0012 25.6806L24.642 23.467ZM23.394 21.166L18.1118 25.7592C18.1489 25.8019 18.1865 25.8441 18.2246 25.8859L23.394 21.166ZM21.483 19.879L18.9234 26.3943C19.0152 26.4303 19.1078 26.4645 19.2011 26.4966L21.483 19.879ZM14.19 19.45V12.45C10.324 12.45 7.19001 15.584 7.19001 19.45H14.19ZM14.19 34.27H7.19001C7.19001 38.136 10.324 41.27 14.19 41.27V34.27ZM8.73001 37H1.73001C1.73001 40.866 4.86402 44 8.73001 44V37ZM8.73001 9.7V2.7C4.86402 2.7 1.73001 5.834 1.73001 9.7H8.73001ZM14.19 9.7H21.19C21.19 5.834 18.056 2.7 14.19 2.7V9.7ZM14.19 16.72H7.19001C7.19001 20.586 10.324 23.72 14.19 23.72V16.72ZM23.94 17.422L21.7979 24.0862C21.8093 24.0899 21.8207 24.0935 21.8321 24.0971L23.94 17.422ZM30.102 22.648L23.6889 25.4537C23.7051 25.4908 23.7217 25.5278 23.7385 25.5646L30.102 22.648ZM30.102 31.072L23.7385 28.1554C23.7217 28.1922 23.7051 28.2292 23.6889 28.2663L30.102 31.072ZM23.94 36.298L21.8321 29.6229C21.8207 29.6265 21.8093 29.6301 21.7979 29.6338L23.94 36.298ZM19.065 41.27C20.6378 41.27 22.2537 41.0378 23.8374 40.4722L19.1286 27.2878C19.1891 27.2662 19.2223 27.2611 19.2179 27.2618C19.2123 27.2627 19.1641 27.27 19.065 27.27V41.27ZM23.9656 40.425C25.7797 39.7369 27.3845 38.6327 28.6762 37.1472L18.1118 27.9608C18.2242 27.8315 18.3668 27.7001 18.5357 27.5829C18.7041 27.466 18.8657 27.3861 19.0004 27.335L23.9656 40.425ZM28.5634 37.2739C29.9408 35.7653 30.8092 34.0241 31.3365 32.2985L17.9475 28.2075C17.9028 28.3539 17.9392 28.1467 18.2246 27.8341L28.5634 37.2739ZM31.2828 32.4666C31.8987 30.6189 32.11 28.6968 32.11 26.86H18.11C18.11 27.2528 18.0866 27.5435 18.0587 27.7463C18.0449 27.8462 18.0307 27.9194 18.0196 27.9687C18.0084 28.0179 18.001 28.0402 18.0012 28.0394L31.2828 32.4666ZM32.11 26.86C32.11 25.0232 31.8987 23.1011 31.2828 21.2534L18.0012 25.6806C18.001 25.6798 18.0084 25.7021 18.0196 25.7513C18.0307 25.8006 18.0449 25.8738 18.0587 25.9737C18.0866 26.1765 18.11 26.4672 18.11 26.86H32.11ZM31.3365 21.4215C30.8092 19.6959 29.9408 17.9547 28.5634 16.4461L18.2246 25.8859C17.9392 25.5733 17.9028 25.3661 17.9475 25.5125L31.3365 21.4215ZM28.6762 16.5728C27.3455 15.0424 25.6714 13.9188 23.7649 13.2614L19.2011 26.4966C19.0246 26.4357 18.8218 26.3404 18.616 26.2018C18.41 26.0631 18.2411 25.908 18.1118 25.7592L28.6762 16.5728ZM24.0426 13.3637C22.4 12.7185 20.7117 12.45 19.065 12.45V26.45C19.1293 26.45 19.1409 26.4552 19.1097 26.4496C19.0769 26.4438 19.011 26.4287 18.9234 26.3943L24.0426 13.3637ZM19.065 12.45H14.19V26.45H19.065V12.45ZM7.19001 19.45V34.27H21.19V19.45H7.19001ZM14.19 41.27H19.065V27.27H14.19V41.27ZM15.73 37V9.7H1.73001V37H15.73ZM8.73001 16.7H14.19V2.7H8.73001V16.7ZM7.19001 9.7V16.72H21.19V9.7H7.19001ZM14.19 23.72H19.065V9.72H14.19V23.72ZM19.065 23.72C20.2545 23.72 21.142 23.8754 21.7979 24.0862L26.0821 10.7578C23.826 10.0326 21.4635 9.72 19.065 9.72V23.72ZM21.8321 24.0971C22.5469 24.3228 22.9524 24.5821 23.1895 24.7836L32.2565 14.1164C30.4136 12.5499 28.2971 11.4572 26.0479 10.7469L21.8321 24.0971ZM23.1895 24.7836C23.4207 24.9801 23.5701 25.1822 23.6889 25.4537L36.5151 19.8423C35.5419 17.6178 34.1053 15.6879 32.2565 14.1164L23.1895 24.7836ZM23.7385 25.5646C23.8375 25.7804 23.96 26.1694 23.96 26.86H37.96C37.96 24.4306 37.5105 22.0116 36.4655 19.7314L23.7385 25.5646ZM23.96 26.86C23.96 27.5506 23.8375 27.9396 23.7385 28.1554L36.4655 33.9886C37.5105 31.7084 37.96 29.2894 37.96 26.86H23.96ZM23.6889 28.2663C23.5701 28.5378 23.4207 28.7399 23.1895 28.9364L32.2565 39.6036C34.1053 38.0321 35.5419 36.1022 36.5151 33.8777L23.6889 28.2663ZM23.1895 28.9364C22.9524 29.1379 22.5469 29.3972 21.8321 29.6229L26.0479 42.9731C28.2971 42.2628 30.4136 41.1701 32.2565 39.6036L23.1895 28.9364ZM21.7979 29.6338C21.142 29.8446 20.2545 30 19.065 30V44C21.4635 44 23.826 43.6874 26.0821 42.9622L21.7979 29.6338ZM19.065 30H8.73001V44H19.065V30ZM48.4542 33.334L53.8142 37.8363C53.8431 37.802 53.8716 37.7673 53.8998 37.7324L48.4542 33.334ZM49.7412 30.721L43.0686 28.6053C43.0529 28.6549 43.0377 28.7047 43.0231 28.7547L49.7412 30.721ZM49.7412 22.999L43.0231 24.9653C43.0377 25.0153 43.0529 25.0651 43.0686 25.1147L49.7412 22.999ZM48.4542 20.425L43.0087 24.8234C43.0369 24.8583 43.0654 24.893 43.0943 24.9273L48.4542 20.425ZM39.9522 20.425L45.3122 24.9273C45.3411 24.893 45.3696 24.8583 45.3978 24.8234L39.9522 20.425ZM38.6262 22.999L31.9536 20.8833C31.9379 20.9329 31.9227 20.9827 31.9081 21.0327L38.6262 22.999ZM38.6262 30.721L31.9081 32.6873C31.9227 32.7373 31.9379 32.7871 31.9536 32.8367L38.6262 30.721ZM39.9522 33.334L34.5067 37.7324C34.5349 37.7673 34.5634 37.802 34.5923 37.8363L39.9522 33.334ZM49.0002 16.681L46.7512 23.3098C46.7981 23.3258 46.8451 23.3412 46.8923 23.3561L49.0002 16.681ZM52.7832 18.787L48.1005 23.9901C48.1247 24.0119 48.1492 24.0335 48.1737 24.055L52.7832 18.787ZM55.2012 22.219L48.7361 24.9026C48.7567 24.9522 48.7778 25.0015 48.7995 25.0505L55.2012 22.219ZM55.2012 31.54L48.7995 28.7085C48.7842 28.743 48.7692 28.7777 48.7545 28.8125L55.2012 31.54ZM52.7832 34.972L57.3928 40.24C57.4173 40.2185 57.4417 40.1969 57.466 40.1751L52.7832 34.972ZM49.0002 37.039L46.8923 30.3639C46.8451 30.3788 46.7981 30.3942 46.7512 30.4101L49.0002 37.039ZM39.3672 37.039L41.6163 30.4101C41.5807 30.3981 41.5451 30.3863 41.5093 30.3748L39.3672 37.039ZM35.6232 34.972L30.9405 40.1751C30.9647 40.1969 30.9892 40.2185 31.0137 40.24L35.6232 34.972ZM33.1662 31.54L26.7195 34.2675C26.7342 34.3023 26.7492 34.337 26.7645 34.3715L33.1662 31.54ZM33.1662 22.219L26.7448 19.4323C26.7363 19.452 26.7278 19.4718 26.7195 19.4915L33.1662 22.219ZM35.6232 18.787L40.2328 24.055C40.2573 24.0335 40.2817 24.0119 40.306 23.9901L35.6232 18.787ZM39.3672 16.681L41.5093 23.3452C41.5451 23.3337 41.5807 23.3219 41.6163 23.3098L39.3672 16.681ZM44.2032 42.245C45.9345 42.245 47.6577 41.9152 49.3007 41.211L43.7858 28.343C43.8691 28.3073 43.9563 28.2806 44.0394 28.2639C44.1217 28.2475 44.1794 28.245 44.2032 28.245V42.245ZM49.3007 41.211C51.1068 40.437 52.6155 39.2634 53.8142 37.8363L43.0943 28.8317C43.1385 28.779 43.2214 28.6921 43.3488 28.596C43.4777 28.4986 43.6264 28.4113 43.7858 28.343L49.3007 41.211ZM53.8998 37.7324C55.1634 36.1679 55.9571 34.4034 56.4594 32.6873L43.0231 28.7547C42.9647 28.9543 42.9187 29.0548 42.9059 29.0808C42.8939 29.1051 42.9208 29.0444 43.0087 28.9356L53.8998 37.7324ZM56.4139 32.8367C57.0295 30.8951 57.2482 28.853 57.2482 26.86H43.2482C43.2482 27.883 43.129 28.4149 43.0686 28.6053L56.4139 32.8367ZM57.2482 26.86C57.2482 24.867 57.0295 22.8249 56.4139 20.8833L43.0686 25.1147C43.129 25.3051 43.2482 25.837 43.2482 26.86H57.2482ZM56.4594 21.0327C55.9553 19.3103 55.1442 17.506 53.8142 15.9227L43.0943 24.9273C43.0332 24.8546 42.9906 24.7942 42.9635 24.7522C42.9364 24.7104 42.9246 24.6867 42.9245 24.6865C42.9244 24.6864 42.935 24.7076 42.953 24.7543C42.971 24.8011 42.9953 24.8703 43.0231 24.9653L56.4594 21.0327ZM53.8998 16.0266C52.7081 14.5511 51.1764 13.3129 49.3007 12.509L43.7858 25.377C43.593 25.2944 43.4206 25.1903 43.2772 25.079C43.1361 24.9696 43.0495 24.874 43.0087 24.8234L53.8998 16.0266ZM49.3007 12.509C47.6577 11.8048 45.9345 11.475 44.2032 11.475V25.475C44.1794 25.475 44.1217 25.4725 44.0394 25.4561C43.9563 25.4394 43.8691 25.4127 43.7858 25.377L49.3007 12.509ZM44.2032 11.475C42.472 11.475 40.7488 11.8048 39.1058 12.509L44.6207 25.377C44.5373 25.4127 44.4502 25.4394 44.3671 25.4561C44.2848 25.4725 44.2271 25.475 44.2032 25.475V11.475ZM39.1058 12.509C37.23 13.3129 35.6984 14.5511 34.5067 16.0266L45.3978 24.8234C45.3569 24.874 45.2704 24.9696 45.1293 25.079C44.9858 25.1903 44.8134 25.2944 44.6207 25.377L39.1058 12.509ZM34.5923 15.9227C33.3019 17.4589 32.4853 19.2066 31.9536 20.8833L45.2989 25.1147C45.3671 24.8995 45.4191 24.7908 45.4341 24.7617C45.4484 24.7338 45.4161 24.8036 45.3122 24.9273L34.5923 15.9227ZM31.9081 21.0327C31.3559 22.9192 31.1582 24.907 31.1582 26.86H45.1582C45.1582 25.797 45.2726 25.2108 45.3444 24.9653L31.9081 21.0327ZM31.1582 26.86C31.1582 28.813 31.3559 30.8008 31.9081 32.6873L45.3444 28.7547C45.2726 28.5092 45.1582 27.923 45.1582 26.86H31.1582ZM31.9536 32.8367C32.4829 34.506 33.281 36.2149 34.5067 37.7324L45.3978 28.9356C45.4679 29.0224 45.4796 29.0575 45.4535 29.006C45.4268 28.9534 45.3693 28.8273 45.2989 28.6053L31.9536 32.8367ZM34.5923 37.8363C35.791 39.2634 37.2997 40.437 39.1058 41.211L44.6207 28.343C44.7801 28.4113 44.9288 28.4986 45.0577 28.596C45.185 28.6921 45.2679 28.779 45.3122 28.8317L34.5923 37.8363ZM39.1058 41.211C40.7488 41.9152 42.472 42.245 44.2032 42.245V28.245C44.2271 28.245 44.2848 28.2475 44.3671 28.2639C44.4502 28.2806 44.5373 28.3073 44.6207 28.343L39.1058 41.211ZM44.2032 22.94C45.2807 22.94 46.1088 23.0919 46.7512 23.3098L51.2493 10.0521C48.9796 9.28208 46.6098 8.94 44.2032 8.94V22.94ZM46.8923 23.3561C47.527 23.5565 47.8824 23.7938 48.1005 23.9901L57.466 13.5839C55.6041 11.9082 53.4374 10.7415 51.1082 10.0059L46.8923 23.3561ZM48.1737 24.055C48.3418 24.2021 48.5426 24.4365 48.7361 24.9026L61.6664 19.5354C60.7159 17.2455 59.3047 15.1919 57.3928 13.519L48.1737 24.055ZM48.7995 25.0505C48.939 25.366 49.0982 25.9215 49.0982 26.86H63.0982C63.0982 24.3145 62.6595 21.776 61.603 19.3875L48.7995 25.0505ZM49.0982 26.86C49.0982 27.8406 48.9335 28.4054 48.7995 28.7085L61.603 34.3715C62.665 31.9706 63.0982 29.4154 63.0982 26.86H49.0982ZM48.7545 28.8125C48.5619 29.2677 48.3407 29.5527 48.1005 29.7689L57.466 40.1751C59.3057 38.5193 60.6966 36.5163 61.648 34.2675L48.7545 28.8125ZM48.1737 29.704C47.947 29.9023 47.5672 30.1508 46.8923 30.3639L51.1082 43.7141C53.3973 42.9912 55.5395 41.8617 57.3928 40.24L48.1737 29.704ZM46.7512 30.4101C46.1088 30.6281 45.2807 30.78 44.2032 30.78V44.78C46.6098 44.78 48.9796 44.4379 51.2493 43.6679L46.7512 30.4101ZM44.2032 30.78C43.0875 30.78 42.2485 30.6246 41.6163 30.4101L37.1182 43.6679C39.398 44.4414 41.7829 44.78 44.2032 44.78V30.78ZM41.5093 30.3748C40.865 30.1677 40.4809 29.9211 40.2328 29.704L31.0137 40.24C32.8456 41.8429 34.9575 42.9743 37.2252 43.7032L41.5093 30.3748ZM40.306 29.7689C40.041 29.5304 39.7897 29.2097 39.568 28.7085L26.7645 34.3715C27.7388 36.5743 29.1255 38.5416 30.9405 40.1751L40.306 29.7689ZM39.613 28.8125C39.4726 28.4807 39.3082 27.8783 39.3082 26.86H25.3082C25.3082 29.3777 25.7158 31.8953 26.7195 34.2675L39.613 28.8125ZM39.3082 26.86C39.3082 25.8831 39.4676 25.2902 39.613 24.9465L26.7195 19.4915C25.7209 21.8518 25.3082 24.3529 25.3082 26.86H39.3082ZM39.5877 25.0057C39.8094 24.4947 40.0392 24.2245 40.2328 24.055L31.0137 13.519C29.1273 15.1695 27.7191 17.1873 26.7448 19.4323L39.5877 25.0057ZM40.306 23.9901C40.5457 23.7743 40.9054 23.5393 41.5093 23.3452L37.2252 10.0168C34.9171 10.7587 32.7808 11.9277 30.9405 13.5839L40.306 23.9901ZM41.6163 23.3098C42.2485 23.0954 43.0875 22.94 44.2032 22.94V8.94C41.7829 8.94 39.398 9.27863 37.1182 10.0521L41.6163 23.3098ZM77.5169 33.334L82.8768 37.8363C82.9057 37.802 82.9342 37.7673 82.9624 37.7324L77.5169 33.334ZM78.8039 30.721L72.1312 28.6053C72.1155 28.6549 72.1003 28.7047 72.0857 28.7547L78.8039 30.721ZM78.8039 22.999L72.0857 24.9653C72.1003 25.0153 72.1155 25.0651 72.1312 25.1147L78.8039 22.999ZM77.5169 20.425L72.0713 24.8234C72.0995 24.8583 72.128 24.893 72.1569 24.9273L77.5169 20.425ZM69.0149 20.425L74.3748 24.9273C74.4037 24.893 74.4322 24.8583 74.4604 24.8234L69.0149 20.425ZM67.6889 22.999L61.0162 20.8833C61.0005 20.9329 60.9853 20.9827 60.9707 21.0327L67.6889 22.999ZM67.6889 30.721L60.9707 32.6873C60.9853 32.7373 61.0005 32.7871 61.0162 32.8367L67.6889 30.721ZM69.0149 33.334L63.5693 37.7324C63.5975 37.7673 63.626 37.802 63.6549 37.8363L69.0149 33.334ZM78.0629 16.681L75.8138 23.3098C75.8607 23.3258 75.9077 23.3412 75.9549 23.3561L78.0629 16.681ZM81.8459 18.787L77.1631 23.9901C77.1874 24.0119 77.2118 24.0335 77.2363 24.055L81.8459 18.787ZM84.2639 22.219L77.7987 24.9026C77.8193 24.9522 77.8404 25.0015 77.8621 25.0505L84.2639 22.219ZM84.2639 31.54L77.8621 28.7085C77.8468 28.743 77.8318 28.7777 77.8171 28.8125L84.2639 31.54ZM81.8459 34.972L86.4554 40.24C86.48 40.2185 86.5044 40.1969 86.5286 40.1751L81.8459 34.972ZM78.0629 37.039L75.9549 30.3639C75.9077 30.3788 75.8607 30.3942 75.8138 30.4101L78.0629 37.039ZM68.4299 37.039L70.6789 30.4101C70.6434 30.3981 70.6077 30.3863 70.5719 30.3748L68.4299 37.039ZM64.6859 34.972L60.0031 40.1751C60.0274 40.1969 60.0518 40.2185 60.0763 40.24L64.6859 34.972ZM62.2289 31.54L55.7821 34.2675C55.7968 34.3023 55.8118 34.337 55.8271 34.3715L62.2289 31.54ZM62.2289 22.219L55.8074 19.4323C55.7989 19.452 55.7905 19.4718 55.7821 19.4915L62.2289 22.219ZM64.6859 18.787L69.2954 24.055C69.32 24.0335 69.3444 24.0119 69.3686 23.9901L64.6859 18.787ZM68.4299 16.681L70.5719 23.3452C70.6077 23.3337 70.6434 23.3219 70.6789 23.3098L68.4299 16.681ZM73.2659 42.245C74.9971 42.245 76.7203 41.9152 78.3633 41.211L72.8484 28.343C72.9318 28.3073 73.0189 28.2806 73.102 28.2639C73.1843 28.2475 73.242 28.245 73.2659 28.245V42.245ZM78.3633 41.211C80.1694 40.437 81.6781 39.2634 82.8768 37.8363L72.1569 28.8317C72.2012 28.779 72.2841 28.6921 72.4114 28.596C72.5403 28.4986 72.689 28.4113 72.8484 28.343L78.3633 41.211ZM82.9624 37.7324C84.2261 36.1679 85.0197 34.4034 85.522 32.6873L72.0857 28.7547C72.0273 28.9543 71.9813 29.0548 71.9685 29.0808C71.9565 29.1051 71.9834 29.0444 72.0713 28.9356L82.9624 37.7324ZM85.4765 32.8367C86.0921 30.8951 86.3109 28.853 86.3109 26.86H72.3109C72.3109 27.883 72.1916 28.4149 72.1312 28.6053L85.4765 32.8367ZM86.3109 26.86C86.3109 24.867 86.0921 22.8249 85.4765 20.8833L72.1312 25.1147C72.1916 25.3051 72.3109 25.837 72.3109 26.86H86.3109ZM85.522 21.0327C85.0179 19.3103 84.2068 17.506 82.8768 15.9227L72.1569 24.9273C72.0958 24.8546 72.0532 24.7942 72.0261 24.7522C71.9991 24.7104 71.9872 24.6867 71.9871 24.6865C71.9871 24.6864 71.9976 24.7076 72.0156 24.7543C72.0336 24.8011 72.0579 24.8703 72.0857 24.9653L85.522 21.0327ZM82.9625 16.0266C81.7707 14.5511 80.2391 13.3129 78.3633 12.509L72.8484 25.377C72.6557 25.2944 72.4833 25.1903 72.3398 25.079C72.1987 24.9696 72.1122 24.874 72.0713 24.8234L82.9625 16.0266ZM78.3633 12.509C76.7203 11.8048 74.9971 11.475 73.2659 11.475V25.475C73.242 25.475 73.1843 25.4725 73.102 25.4561C73.0189 25.4394 72.9318 25.4127 72.8484 25.377L78.3633 12.509ZM73.2659 11.475C71.5346 11.475 69.8114 11.8048 68.1684 12.509L73.6833 25.377C73.6 25.4127 73.5128 25.4394 73.4297 25.4561C73.3474 25.4725 73.2897 25.475 73.2659 25.475V11.475ZM68.1684 12.509C66.2927 13.3129 64.761 14.5511 63.5693 16.0266L74.4604 24.8234C74.4196 24.874 74.333 24.9696 74.1919 25.079C74.0485 25.1903 73.8761 25.2944 73.6833 25.377L68.1684 12.509ZM63.6549 15.9227C62.3645 17.4589 61.5479 19.2066 61.0162 20.8833L74.3615 25.1147C74.4297 24.8995 74.4817 24.7908 74.4967 24.7617C74.511 24.7338 74.4787 24.8036 74.3748 24.9273L63.6549 15.9227ZM60.9707 21.0327C60.4186 22.9192 60.2209 24.907 60.2209 26.86H74.2209C74.2209 25.797 74.3352 25.2108 74.407 24.9653L60.9707 21.0327ZM60.2209 26.86C60.2209 28.813 60.4186 30.8008 60.9707 32.6873L74.407 28.7547C74.3352 28.5092 74.2209 27.923 74.2209 26.86H60.2209ZM61.0162 32.8367C61.5455 34.506 62.3436 36.2149 63.5693 37.7324L74.4604 28.9356C74.5305 29.0224 74.5422 29.0575 74.5161 29.006C74.4894 28.9534 74.4319 28.8273 74.3615 28.6053L61.0162 32.8367ZM63.6549 37.8363C64.8536 39.2634 66.3623 40.437 68.1684 41.211L73.6833 28.343C73.8427 28.4113 73.9914 28.4986 74.1203 28.596C74.2477 28.6921 74.3306 28.779 74.3748 28.8317L63.6549 37.8363ZM68.1684 41.211C69.8114 41.9152 71.5346 42.245 73.2659 42.245V28.245C73.2897 28.245 73.3474 28.2475 73.4297 28.2639C73.5128 28.2806 73.6 28.3073 73.6833 28.343L68.1684 41.211ZM73.2659 22.94C74.3433 22.94 75.1715 23.0919 75.8138 23.3098L80.3119 10.0521C78.0423 9.28208 75.6724 8.94 73.2659 8.94V22.94ZM75.9549 23.3561C76.5897 23.5565 76.945 23.7938 77.1631 23.9901L86.5286 13.5839C84.6667 11.9082 82.5001 10.7415 80.1708 10.0059L75.9549 23.3561ZM77.2363 24.055C77.4044 24.2021 77.6052 24.4365 77.7987 24.9026L90.729 19.5354C89.7785 17.2455 88.3673 15.1919 86.4554 13.519L77.2363 24.055ZM77.8621 25.0505C78.0016 25.366 78.1609 25.9215 78.1609 26.86H92.1609C92.1609 24.3145 91.7221 21.776 90.6656 19.3875L77.8621 25.0505ZM78.1609 26.86C78.1609 27.8406 77.9961 28.4054 77.8621 28.7085L90.6656 34.3715C91.7276 31.9706 92.1609 29.4154 92.1609 26.86H78.1609ZM77.8171 28.8125C77.6245 29.2677 77.4034 29.5527 77.1631 29.7689L86.5286 40.1751C88.3684 38.5193 89.7592 36.5163 90.7106 34.2675L77.8171 28.8125ZM77.2363 29.704C77.0096 29.9023 76.6298 30.1508 75.9549 30.3639L80.1708 43.7141C82.4599 42.9912 84.6021 41.8617 86.4554 40.24L77.2363 29.704ZM75.8138 30.4101C75.1715 30.6281 74.3433 30.78 73.2659 30.78V44.78C75.6724 44.78 78.0423 44.4379 80.3119 43.6679L75.8138 30.4101ZM73.2659 30.78C72.1502 30.78 71.3111 30.6246 70.6789 30.4101L66.1808 43.6679C68.4606 44.4414 70.8456 44.78 73.2659 44.78V30.78ZM70.5719 30.3748C69.9276 30.1677 69.5435 29.9211 69.2954 29.704L60.0763 40.24C61.9082 41.8429 64.0201 42.9743 66.2878 43.7032L70.5719 30.3748ZM69.3686 29.7689C69.1036 29.5304 68.8523 29.2097 68.6306 28.7085L55.8271 34.3715C56.8014 36.5743 58.1881 38.5416 60.0031 40.1751L69.3686 29.7689ZM68.6756 28.8125C68.5353 28.4807 68.3709 27.8783 68.3709 26.86H54.3709C54.3709 29.3777 54.7785 31.8953 55.7821 34.2675L68.6756 28.8125ZM68.3709 26.86C68.3709 25.8831 68.5302 25.2902 68.6756 24.9465L55.7821 19.4915C54.7835 21.8518 54.3709 24.3529 54.3709 26.86H68.3709ZM68.6503 25.0057C68.872 24.4947 69.1018 24.2245 69.2954 24.055L60.0763 13.519C58.1899 15.1695 56.7817 17.1873 55.8074 19.4323L68.6503 25.0057ZM69.3686 23.9901C69.6083 23.7743 69.968 23.5393 70.5719 23.3452L66.2878 10.0168C63.9797 10.7587 61.8434 11.9277 60.0031 13.5839L69.3686 23.9901ZM70.6789 23.3098C71.3111 23.0954 72.1502 22.94 73.2659 22.94V8.94C70.8456 8.94 68.4606 9.27863 66.1808 10.0521L70.6789 23.3098ZM97.0635 28.03L102.868 24.118C101.567 22.1874 99.3915 21.03 97.0635 21.03V28.03ZM92.9685 28.03V21.03C89.1025 21.03 85.9685 24.164 85.9685 28.03H92.9685ZM92.9685 37V44C96.8345 44 99.9685 40.866 99.9685 37H92.9685ZM87.5085 37H80.5085C80.5085 40.866 83.6425 44 87.5085 44V37ZM87.5085 9.7V2.7C83.6425 2.7 80.5085 5.834 80.5085 9.7H87.5085ZM92.9685 9.7H99.9685C99.9685 5.834 96.8345 2.7 92.9685 2.7V9.7ZM92.9685 25.3H85.9685C85.9685 29.166 89.1025 32.3 92.9685 32.3V25.3ZM97.0635 25.3V32.3C99.3401 32.3 101.475 31.1928 102.786 29.3317L97.0635 25.3ZM103.108 16.72V9.72C100.832 9.72 98.6974 10.8272 97.3861 12.6883L103.108 16.72ZM108.958 16.72L114.693 20.7342C116.19 18.5959 116.373 15.8025 115.167 13.4873C113.962 11.1722 111.569 9.72 108.958 9.72V16.72ZM102.133 26.47L96.3988 22.4558C94.7264 24.845 94.7105 28.0208 96.3589 30.4266L102.133 26.47ZM109.348 37V44C111.946 44 114.33 42.5616 115.541 40.2637C116.752 37.9658 116.591 35.1862 115.123 33.0434L109.348 37ZM103.108 37L97.3036 40.912C98.6047 42.8426 100.78 44 103.108 44V37ZM97.0635 21.03H92.9685V35.03H97.0635V21.03ZM85.9685 28.03V37H99.9685V28.03H85.9685ZM92.9685 30H87.5085V44H92.9685V30ZM94.5085 37V9.7H80.5085V37H94.5085ZM87.5085 16.7H92.9685V2.7H87.5085V16.7ZM85.9685 9.7V25.3H99.9685V9.7H85.9685ZM92.9685 32.3H97.0635V18.3H92.9685V32.3ZM102.786 29.3317L108.831 20.7517L97.3861 12.6883L91.3411 21.2683L102.786 29.3317ZM103.108 23.72H108.958V9.72H103.108V23.72ZM103.224 12.7058L96.3988 22.4558L107.868 30.4842L114.693 20.7342L103.224 12.7058ZM96.3589 30.4266L103.574 40.9566L115.123 33.0434L107.908 22.5134L96.3589 30.4266ZM109.348 30H103.108V44H109.348V30ZM108.913 33.088L102.868 24.118L91.2586 31.942L97.3036 40.912L108.913 33.088ZM115.965 37V44C119.831 44 122.965 40.866 122.965 37H115.965ZM110.505 37H103.505C103.505 40.866 106.639 44 110.505 44V37ZM110.505 17.11V10.11C106.639 10.11 103.505 13.244 103.505 17.11H110.505ZM115.965 17.11H122.965C122.965 13.244 119.831 10.11 115.965 10.11V17.11ZM115.341 13.912L110.171 9.19211C110.168 9.19583 110.165 9.19956 110.161 9.20328L115.341 13.912ZM111.09 13.912L105.808 18.5053C105.879 18.587 105.952 18.667 106.026 18.7453L111.09 13.912ZM111.09 9.817L105.92 5.09711C105.917 5.10084 105.914 5.10456 105.91 5.10829L111.09 9.817ZM115.341 9.817L110.171 14.5369C110.206 14.5751 110.242 14.6129 110.277 14.6503L115.341 9.817ZM115.965 30H110.505V44H115.965V30ZM117.505 37V17.11H103.505V37H117.505ZM110.505 24.11H115.965V10.11H110.505V24.11ZM108.965 17.11V37H122.965V17.11H108.965ZM109.16 11.845C109.16 11.3991 109.242 10.887 109.447 10.3682C109.651 9.85367 109.925 9.46172 110.171 9.19211L120.51 18.6319C122.184 16.7982 123.16 14.4436 123.16 11.845H109.16ZM110.161 9.20328C110.59 8.73169 111.147 8.33221 111.783 8.07285C112.398 7.82234 112.92 7.77 113.235 7.77V21.77C115.779 21.77 118.477 20.8682 120.52 18.6207L110.161 9.20328ZM113.235 7.77C113.553 7.77 114.053 7.82322 114.635 8.05616C115.234 8.29575 115.753 8.65929 116.153 9.07866L106.026 18.7453C108.055 20.8711 110.686 21.77 113.235 21.77V7.77ZM116.372 9.31875C116.615 9.5984 116.869 9.98577 117.054 10.4753C117.239 10.9666 117.31 11.4412 117.31 11.845H103.31C103.31 14.3425 104.199 16.6558 105.808 18.5053L116.372 9.31875ZM117.31 11.845C117.31 12.2477 117.24 12.7422 117.038 13.2659C116.836 13.7906 116.553 14.2135 116.269 14.5257L105.91 5.10829C104.207 6.9816 103.31 9.34102 103.31 11.845H117.31ZM116.259 14.5369C115.877 14.9554 115.36 15.3412 114.736 15.6023C114.126 15.8574 113.59 15.92 113.235 15.92V1.92C110.585 1.92 107.923 2.90414 105.92 5.09711L116.259 14.5369ZM113.235 15.92C112.838 15.92 112.28 15.8477 111.662 15.5844C111.034 15.3171 110.532 14.9323 110.171 14.5369L120.51 5.09711C118.551 2.95185 115.928 1.92 113.235 1.92V15.92ZM110.277 14.6503C109.991 14.3504 109.686 13.9243 109.464 13.3742C109.241 12.8224 109.16 12.2899 109.16 11.845H123.16C123.16 9.23732 122.174 6.83781 120.404 4.98367L110.277 14.6503ZM134.725 34.387L132.152 27.8773C132.134 27.8842 132.116 27.8913 132.099 27.8984L134.725 34.387ZM138.001 32.515L143.826 28.6321C142.756 27.0274 141.071 25.9351 139.17 25.6132C137.268 25.2913 135.318 25.7682 133.78 26.9314L138.001 32.515ZM139.561 34.855L144.229 40.0717C146.825 37.7489 147.318 33.8706 145.386 30.9721L139.561 34.855ZM137.806 36.064L134.488 29.9007C134.454 29.919 134.42 29.9376 134.386 29.9565L137.806 36.064ZM135.661 37L137.736 43.6854C137.783 43.671 137.829 43.6562 137.875 43.6408L135.661 37ZM133.282 37.546L132.202 30.6299C132.132 30.6408 132.062 30.6528 131.992 30.6659L133.282 37.546ZM125.716 37.039L127.862 30.376C127.838 30.3684 127.815 30.3609 127.791 30.3536L125.716 37.039ZM121.855 34.972L117.237 40.2321C117.261 40.2535 117.286 40.2748 117.31 40.296L121.855 34.972ZM119.359 31.54L112.913 34.2675C112.927 34.3023 112.942 34.337 112.958 34.3715L119.359 31.54ZM119.32 22.219L112.855 19.5354C112.847 19.5561 112.838 19.5769 112.83 19.5978L119.32 22.219ZM121.66 18.787L126.403 23.9358L126.408 23.9306L121.66 18.787ZM125.248 16.681L127.499 23.3092C127.537 23.2966 127.574 23.2836 127.611 23.2704L125.248 16.681ZM137.806 18.709L133.131 23.9187C133.156 23.9411 133.181 23.9634 133.206 23.9854L137.806 18.709ZM141.121 29.005V36.005C144.987 36.005 148.121 32.871 148.121 29.005H141.121ZM124.468 29.005V22.005C122.437 22.005 120.506 22.8874 119.176 24.423C117.847 25.9587 117.25 27.9962 117.54 30.0066L124.468 29.005ZM126.691 33.646L122.318 39.1121C122.338 39.1277 122.357 39.1432 122.377 39.1585L126.691 33.646ZM125.989 20.269L120.501 15.9241C120.463 15.9719 120.426 16.0202 120.389 16.069L125.989 20.269ZM124.819 22.687L118.144 20.5791C118.127 20.6327 118.111 20.6866 118.095 20.7406L124.819 22.687ZM124.351 26.275L117.352 26.1454C117.318 28.0241 118.04 29.8378 119.356 31.1787C120.672 32.5196 122.472 33.275 124.351 33.275V26.275ZM135.271 26.275V33.275C139.137 33.275 142.271 30.141 142.271 26.275H135.271ZM133.555 20.347L127.982 24.5826C128.046 24.6659 128.111 24.7479 128.178 24.8283L133.555 20.347ZM131.8 18.943L128.771 25.2537C128.871 25.3014 128.971 25.3468 129.073 25.3898L131.8 18.943ZM131.176 42.05C133.277 42.05 135.359 41.682 137.352 40.8756L132.099 27.8984C131.907 27.976 131.624 28.05 131.176 28.05V42.05ZM137.299 40.8967C139.067 40.1977 140.708 39.2444 142.223 38.0986L133.78 26.9314C133.163 27.3976 132.62 27.6923 132.152 27.8773L137.299 40.8967ZM132.177 36.3979L133.737 38.7379L145.386 30.9721L143.826 28.6321L132.177 36.3979ZM134.894 29.6383C134.869 29.6603 134.753 29.7579 134.488 29.9007L141.125 42.2273C142.212 41.6421 143.265 40.9337 144.229 40.0717L134.894 29.6383ZM134.386 29.9565C134.158 30.0843 133.852 30.2244 133.448 30.3592L137.875 43.6408C139.03 43.2556 140.155 42.7717 141.227 42.1715L134.386 29.9565ZM133.586 30.3146C133.179 30.4412 132.719 30.549 132.202 30.6299L134.363 44.4621C135.509 44.283 136.636 44.0268 137.736 43.6854L133.586 30.3146ZM131.992 30.6659C131.578 30.7435 131.178 30.78 130.786 30.78V44.78C132.059 44.78 133.322 44.6605 134.572 44.4261L131.992 30.6659ZM130.786 30.78C129.565 30.78 128.61 30.6169 127.862 30.376L123.571 43.702C125.89 44.4491 128.316 44.78 130.786 44.78V30.78ZM127.791 30.3536C127.076 30.1315 126.658 29.8679 126.4 29.648L117.31 40.296C119.185 41.8961 121.341 43.0105 123.641 43.7244L127.791 30.3536ZM126.474 29.7119C126.204 29.4748 125.966 29.1712 125.761 28.7085L112.958 34.3715C113.949 36.6128 115.375 38.5972 117.237 40.2321L126.474 29.7119ZM125.806 28.8125C125.666 28.4807 125.501 27.8783 125.501 26.86H111.501C111.501 29.3777 111.909 31.8953 112.913 34.2675L125.806 28.8125ZM125.501 26.86C125.501 25.8452 125.66 25.2141 125.811 24.8402L112.83 19.5978C111.889 21.9279 111.501 24.3908 111.501 26.86H125.501ZM125.785 24.9026C126.012 24.3569 126.24 24.0859 126.403 23.9358L116.918 13.6382C115.105 15.3081 113.773 17.3251 112.855 19.5354L125.785 24.9026ZM126.408 23.9306C126.664 23.6946 126.997 23.4799 127.499 23.3092L122.997 10.0528C120.744 10.8181 118.685 12.0074 116.912 13.6434L126.408 23.9306ZM127.611 23.2704C128.135 23.0825 128.844 22.94 129.811 22.94V8.94C127.451 8.94 125.118 9.2915 122.886 10.0916L127.611 23.2704ZM129.811 22.94C130.661 22.94 131.365 23.0655 131.967 23.2702L136.469 10.0138C134.316 9.28247 132.082 8.94 129.811 8.94V22.94ZM131.967 23.2702C132.511 23.455 132.868 23.6827 133.131 23.9187L142.482 13.4993C140.717 11.9153 138.681 10.765 136.469 10.0138L131.967 23.2702ZM133.206 23.9854C133.454 24.2015 133.683 24.4844 133.888 24.9203L146.561 18.9717C145.57 16.8596 144.186 14.9845 142.406 13.4326L133.206 23.9854ZM133.888 24.9203C133.989 25.1372 134.121 25.5417 134.121 26.275H148.121C148.121 23.7843 147.655 21.3028 146.561 18.9717L133.888 24.9203ZM134.121 26.275V29.005H148.121V26.275H134.121ZM141.121 22.005H124.468V36.005H141.121V22.005ZM117.54 30.0066C117.992 33.1304 119.242 36.6506 122.318 39.1121L131.064 28.1799C131.229 28.3119 131.354 28.4462 131.442 28.5601C131.527 28.6715 131.565 28.747 131.571 28.7598C131.577 28.7709 131.552 28.7227 131.516 28.5953C131.48 28.4676 131.435 28.2744 131.396 28.0034L117.54 30.0066ZM122.377 39.1585C125.018 41.2254 128.113 42.05 131.176 42.05V28.05C130.888 28.05 130.781 28.0126 130.801 28.0187C130.81 28.0215 130.84 28.0319 130.882 28.0542C130.925 28.0766 130.968 28.1041 131.005 28.1335L122.377 39.1585ZM129.811 11.475C128.148 11.475 126.479 11.796 124.886 12.4968L130.524 25.3112C130.389 25.3709 130.25 25.4142 130.117 25.4414C129.984 25.4683 129.879 25.475 129.811 25.475V11.475ZM124.886 12.4968C123.071 13.2956 121.617 14.5149 120.501 15.9241L131.478 24.6139C131.35 24.7751 131.04 25.0844 130.524 25.3112L124.886 12.4968ZM120.389 16.069C119.321 17.4939 118.621 19.0703 118.144 20.5791L131.494 24.7949C131.564 24.5743 131.62 24.4463 131.647 24.3904C131.674 24.3346 131.662 24.3725 131.589 24.469L120.389 16.069ZM118.095 20.7406C117.589 22.4901 117.386 24.3336 117.352 26.1454L131.35 26.4046C131.369 25.4084 131.478 24.8599 131.543 24.6334L118.095 20.7406ZM124.351 33.275H135.271V19.275H124.351V33.275ZM142.271 26.275C142.271 24.4131 142.06 22.4984 141.478 20.6571L128.128 24.8729C128.171 25.0076 128.271 25.4329 128.271 26.275H142.271ZM141.478 20.6571C140.965 19.0305 140.172 17.3526 138.933 15.8657L128.178 24.8283C128.076 24.7063 128.036 24.6283 128.037 24.63C128.037 24.6307 128.047 24.6497 128.064 24.6902C128.08 24.7308 128.102 24.7908 128.128 24.8729L141.478 20.6571ZM139.128 16.1114C137.98 14.6004 136.452 13.3102 134.528 12.4962L129.073 25.3898C128.501 25.1478 128.143 24.7936 127.982 24.5826L139.128 16.1114ZM134.829 12.6323C133.298 11.8974 131.605 11.475 129.811 11.475V25.475C129.37 25.475 129.002 25.3646 128.771 25.2537L134.829 12.6323Z" fill="#FFFDFB"/>
<path d="M19.065 34.27C19.949 34.27 20.755 34.14 21.483 33.88C22.237 33.594 22.874 33.152 23.394 32.554C23.94 31.956 24.356 31.189 24.642 30.253C24.954 29.317 25.11 28.186 25.11 26.86C25.11 25.534 24.954 24.403 24.642 23.467C24.356 22.531 23.94 21.764 23.394 21.166C22.874 20.568 22.237 20.139 21.483 19.879C20.755 19.593 19.949 19.45 19.065 19.45H14.19V34.27H19.065ZM8.73001 37V9.7H14.19V16.72H19.065C20.859 16.72 22.484 16.954 23.94 17.422C25.422 17.89 26.683 18.566 27.723 19.45C28.763 20.334 29.556 21.4 30.102 22.648C30.674 23.896 30.96 25.3 30.96 26.86C30.96 28.42 30.674 29.824 30.102 31.072C29.556 32.32 28.763 33.386 27.723 34.27C26.683 35.154 25.422 35.83 23.94 36.298C22.484 36.766 20.859 37 19.065 37H8.73001ZM44.2032 35.245C45.0352 35.245 45.8152 35.089 46.5432 34.777C47.2712 34.465 47.9082 33.984 48.4542 33.334C49.0002 32.658 49.4292 31.787 49.7412 30.721C50.0792 29.655 50.2482 28.368 50.2482 26.86C50.2482 25.352 50.0792 24.065 49.7412 22.999C49.4292 21.933 49.0002 21.075 48.4542 20.425C47.9082 19.749 47.2712 19.255 46.5432 18.943C45.8152 18.631 45.0352 18.475 44.2032 18.475C43.3712 18.475 42.5912 18.631 41.8632 18.943C41.1352 19.255 40.4982 19.749 39.9522 20.425C39.4062 21.075 38.9642 21.933 38.6262 22.999C38.3142 24.065 38.1582 25.352 38.1582 26.86C38.1582 28.368 38.3142 29.655 38.6262 30.721C38.9642 31.787 39.4062 32.658 39.9522 33.334C40.4982 33.984 41.1352 34.465 41.8632 34.777C42.5912 35.089 43.3712 35.245 44.2032 35.245ZM44.2032 15.94C45.9452 15.94 47.5442 16.187 49.0002 16.681C50.4822 17.149 51.7432 17.851 52.7832 18.787C53.8232 19.697 54.6292 20.841 55.2012 22.219C55.7992 23.571 56.0982 25.118 56.0982 26.86C56.0982 28.628 55.7992 30.188 55.2012 31.54C54.6292 32.892 53.8232 34.036 52.7832 34.972C51.7432 35.882 50.4822 36.571 49.0002 37.039C47.5442 37.533 45.9452 37.78 44.2032 37.78C42.4352 37.78 40.8232 37.533 39.3672 37.039C37.9112 36.571 36.6632 35.882 35.6232 34.972C34.5832 34.036 33.7642 32.892 33.1662 31.54C32.5942 30.188 32.3082 28.628 32.3082 26.86C32.3082 25.118 32.5942 23.571 33.1662 22.219C33.7642 20.841 34.5832 19.697 35.6232 18.787C36.6632 17.851 37.9112 17.149 39.3672 16.681C40.8232 16.187 42.4352 15.94 44.2032 15.94ZM73.2659 35.245C74.0979 35.245 74.8779 35.089 75.6059 34.777C76.3339 34.465 76.9709 33.984 77.5169 33.334C78.0629 32.658 78.4919 31.787 78.8039 30.721C79.1419 29.655 79.3109 28.368 79.3109 26.86C79.3109 25.352 79.1419 24.065 78.8039 22.999C78.4919 21.933 78.0629 21.075 77.5169 20.425C76.9709 19.749 76.3339 19.255 75.6059 18.943C74.8779 18.631 74.0979 18.475 73.2659 18.475C72.4339 18.475 71.6539 18.631 70.9259 18.943C70.1979 19.255 69.5609 19.749 69.0149 20.425C68.4689 21.075 68.0269 21.933 67.6889 22.999C67.3769 24.065 67.2209 25.352 67.2209 26.86C67.2209 28.368 67.3769 29.655 67.6889 30.721C68.0269 31.787 68.4689 32.658 69.0149 33.334C69.5609 33.984 70.1979 34.465 70.9259 34.777C71.6539 35.089 72.4339 35.245 73.2659 35.245ZM73.2659 15.94C75.0079 15.94 76.6069 16.187 78.0629 16.681C79.5449 17.149 80.8059 17.851 81.8459 18.787C82.8859 19.697 83.6919 20.841 84.2639 22.219C84.8619 23.571 85.1609 25.118 85.1609 26.86C85.1609 28.628 84.8619 30.188 84.2639 31.54C83.6919 32.892 82.8859 34.036 81.8459 34.972C80.8059 35.882 79.5449 36.571 78.0629 37.039C76.6069 37.533 75.0079 37.78 73.2659 37.78C71.4979 37.78 69.8859 37.533 68.4299 37.039C66.9739 36.571 65.7259 35.882 64.6859 34.972C63.6459 34.036 62.8269 32.892 62.2289 31.54C61.6569 30.188 61.3709 28.628 61.3709 26.86C61.3709 25.118 61.6569 23.571 62.2289 22.219C62.8269 20.841 63.6459 19.697 64.6859 18.787C65.7259 17.851 66.9739 17.149 68.4299 16.681C69.8859 16.187 71.4979 15.94 73.2659 15.94ZM97.0635 28.03H92.9685V37H87.5085V9.7H92.9685V25.3H97.0635L103.108 16.72H108.958L102.133 26.47L109.348 37H103.108L97.0635 28.03ZM115.965 37H110.505V17.11H115.965V37ZM116.16 11.845C116.16 12.625 115.887 13.314 115.341 13.912C114.821 14.484 114.119 14.77 113.235 14.77C112.351 14.77 111.636 14.484 111.09 13.912C110.57 13.314 110.31 12.625 110.31 11.845C110.31 11.065 110.57 10.389 111.09 9.817C111.636 9.219 112.351 8.92 113.235 8.92C114.093 8.92 114.795 9.219 115.341 9.817C115.887 10.389 116.16 11.065 116.16 11.845ZM131.176 35.05C132.45 35.05 133.633 34.829 134.725 34.387C135.843 33.945 136.935 33.321 138.001 32.515L139.561 34.855C139.067 35.297 138.482 35.7 137.806 36.064C137.156 36.428 136.441 36.74 135.661 37C134.907 37.234 134.114 37.416 133.282 37.546C132.45 37.702 131.618 37.78 130.786 37.78C128.94 37.78 127.25 37.533 125.716 37.039C124.208 36.571 122.921 35.882 121.855 34.972C120.789 34.036 119.957 32.892 119.359 31.54C118.787 30.188 118.501 28.628 118.501 26.86C118.501 25.118 118.774 23.571 119.32 22.219C119.892 20.841 120.672 19.697 121.66 18.787C122.674 17.851 123.87 17.149 125.248 16.681C126.626 16.187 128.147 15.94 129.811 15.94C131.371 15.94 132.84 16.174 134.218 16.642C135.596 17.11 136.792 17.799 137.806 18.709C138.82 19.593 139.626 20.672 140.224 21.946C140.822 23.22 141.121 24.663 141.121 26.275V29.005H124.468C124.78 31.163 125.521 32.71 126.691 33.646C127.887 34.582 129.382 35.05 131.176 35.05ZM129.811 18.475C129.057 18.475 128.355 18.618 127.705 18.904C127.055 19.19 126.483 19.645 125.989 20.269C125.521 20.893 125.131 21.699 124.819 22.687C124.533 23.675 124.377 24.871 124.351 26.275H135.271C135.271 24.923 135.115 23.753 134.803 22.765C134.491 21.777 134.075 20.971 133.555 20.347C133.061 19.697 132.476 19.229 131.8 18.943C131.15 18.631 130.487 18.475 129.811 18.475Z" fill="#131313"/>
<path d="M58.5 27.5H61.5" stroke="#FFC149" stroke-width="7" stroke-linecap="round"/>
<path d="M48.5 31C50.9853 31 53 28.9853 53 26.5C53 24.0147 50.9853 22 48.5 22C46.0147 22 44 24.0147 44 26.5C44 28.9853 46.0147 31 48.5 31Z" fill="black"/>
<path d="M77.5 31C79.9853 31 82 28.9853 82 26.5C82 24.0147 79.9853 22 77.5 22C75.0147 22 73 24.0147 73 26.5C73 28.9853 75.0147 31 77.5 31Z" fill="black"/>
</svg>
